<svg width="163" height="164" viewBox="0 0 163 164" fill="none" xmlns="http://www.w3.org/2000/svg">
<path d="M81.5001 162.5C125.959 162.5 162 126.459 162 82.0001C162 37.5411 125.959 1.5 81.5001 1.5C37.0411 1.5 1 37.5411 1 82.0001C1 126.459 37.0411 162.5 81.5001 162.5Z" fill="#E0E0E0" stroke="black" stroke-width="2" stroke-miterlimit="10" stroke-linecap="round" stroke-linejoin="round"/>
<path d="M81.4998 145.895C116.788 145.895 145.394 117.288 145.394 81.9999C145.394 46.7118 116.788 18.1052 81.4998 18.1052C46.2117 18.1052 17.605 46.7118 17.605 81.9999C17.605 117.288 46.2117 145.895 81.4998 145.895Z" fill="#E0E0E0" stroke="black" stroke-width="2" stroke-miterlimit="10" stroke-linecap="round" stroke-linejoin="round"/>
<path d="M122.633 48.5398C127.157 53.9605 130.702 60.1956 133.045 66.8562" stroke="black" stroke-width="2" stroke-miterlimit="10" stroke-linecap="round" stroke-linejoin="round"/>
<mask id="mask0_186_20057" style="mask-type:alpha" maskUnits="userSpaceOnUse" x="26" y="25" width="123" height="133">
<rect x="44.1996" y="25.564" width="105.593" height="117.507" transform="rotate(8.69362 44.1996 25.564)" fill="#D9D9D9"/>
</mask>
<g mask="url(#mask0_186_20057)">
<path d="M55.5273 98.8497C55.8962 96.7349 56.9116 94.7602 58.411 93.346C60.1835 91.6754 62.6973 90.58 63.4243 88.1633C64.1528 85.7393 62.7221 83.2152 61.8426 80.8128C60.9132 78.2725 60.579 75.5125 60.7472 72.8131C60.8298 71.4788 61.0444 70.1228 61.6686 68.9761C62.2929 67.8294 63.391 66.9195 64.6383 66.8605C66.3146 66.7815 67.7225 68.1532 69.0378 69.3C70.3533 70.4477 72.1417 71.4928 73.6358 70.7038C74.3353 70.3346 74.8158 69.6226 75.1998 68.895C77.4359 64.6587 77.1952 59.34 75.9566 54.5861C80.0158 53.6537 84.1017 52.8482 88.2096 52.1712L86.5648 52.4445C87.6552 52.2641 88.7456 52.0836 89.8368 51.9031C90.2081 51.8412 90.6322 51.7412 90.8015 51.3843C90.9547 51.0611 97.6559 44.9053 97.5194 44.5676C95.2931 39.0637 89.507 38.4994 83.6828 37.6088C77.8585 36.7184 67.0507 38.029 61.795 39.8542C56.5465 41.6766 51.7072 44.7629 47.7177 48.8108C45.7614 50.7956 44.0008 53.0199 42.6418 55.5175C40.4755 59.4991 39.3875 64.0626 38.6157 68.6206C37.378 75.9363 37.5534 78.6108 39.7184 90.6671C40.4195 96.5397 37.2918 97.5976 38.4647 98.8663C41.6914 102.356 51.0131 99.2318 55.5273 98.8497Z" fill="#2E58F9"/>
<path fill-rule="evenodd" clip-rule="evenodd" d="M72.5914 38.3201C76.6584 37.8778 80.7553 37.7789 83.5902 38.2124C83.9136 38.2618 84.2356 38.3101 84.5555 38.3581C87.1503 38.7475 89.6167 39.1176 91.7314 39.9283C93.9839 40.7919 95.7824 42.1369 96.8356 44.519C96.8275 44.5288 96.819 44.539 96.81 44.5496C96.6533 44.7345 96.4139 44.9919 96.1105 45.3043C95.5065 45.9264 94.683 46.7317 93.8444 47.5423C93.445 47.9285 93.0396 48.3183 92.6546 48.6884C92.2378 49.0892 91.845 49.4668 91.5097 49.7919C91.1855 50.1062 90.9077 50.3783 90.7052 50.5831C90.6045 50.685 90.5181 50.7746 90.4525 50.8464C90.4201 50.8819 90.3881 50.9181 90.3604 50.9522L90.3589 50.9541C90.3417 50.9752 90.2882 51.0409 90.2495 51.1226C90.2463 51.1293 90.2329 51.1579 90.1461 51.1965C90.0487 51.2399 89.9163 51.2707 89.7368 51.3006M89.7361 51.3008L88.1471 51.5637C88.1348 51.565 88.1224 51.5666 88.11 51.5687C87.931 51.5982 87.752 51.628 87.573 51.6579L86.4648 51.8421C86.4379 51.8466 86.4113 51.8528 86.3858 51.8606C82.8459 52.4758 79.3228 53.1863 75.8196 53.991C75.6587 54.0279 75.5197 54.1284 75.4342 54.2695C75.3486 54.4106 75.3238 54.5803 75.3654 54.74C76.5874 59.4302 76.7923 64.5693 74.6595 68.61C74.2847 69.3201 73.8762 69.8863 73.3505 70.1638C72.8116 70.4484 72.1871 70.4261 71.4881 70.1581C70.7838 69.888 70.07 69.3905 69.4389 68.8399C69.3407 68.7543 69.2403 68.6658 69.1381 68.5757C68.5781 68.0824 67.9599 67.5378 67.3081 67.11C66.5288 66.5986 65.6285 66.2025 64.6092 66.2506C63.0798 66.3229 61.8202 67.42 61.1321 68.6841C60.4431 69.9497 60.2218 71.4138 60.1375 72.7753C60.1375 72.7754 60.1375 72.7752 60.1375 72.7753C59.9647 75.5484 60.3072 78.3939 61.2689 81.0226C61.4414 81.4937 61.6356 81.972 61.8263 82.4415C61.8835 82.5825 61.9405 82.7228 61.9965 82.8619C62.2418 83.4714 62.472 84.0675 62.6521 84.6581C63.0134 85.8422 63.1533 86.9423 62.8393 87.9874C62.8393 87.9874 62.8393 87.9873 62.8393 87.9874C62.5269 89.0257 61.8253 89.809 60.9183 90.5655C60.5517 90.8713 60.1661 91.1612 59.7658 91.4623C59.6685 91.5355 59.5703 91.6094 59.4712 91.6843C58.9728 92.0612 58.4608 92.4597 57.9919 92.9016C56.4986 94.3101 55.4648 96.2264 55.0153 98.2873C55.1732 98.2693 55.3268 98.2539 55.4755 98.2413L55.527 98.8497L54.9255 98.7448C54.9522 98.5916 54.9822 98.4391 55.0153 98.2873C53.9348 98.4101 52.6487 98.651 51.2979 98.904L51.2736 98.9085C49.7177 99.2 48.0576 99.511 46.4407 99.7034C44.8122 99.8973 43.2628 99.9661 41.9399 99.7845C40.614 99.6026 39.5854 99.1792 38.9127 98.4518C38.9127 98.4518 38.9128 98.4518 38.9127 98.4518C38.8296 98.3619 38.816 98.3103 38.8119 98.2861C38.8063 98.2543 38.8047 98.1905 38.846 98.0606C38.8888 97.9257 38.9634 97.7622 39.0766 97.5361C39.1075 97.4744 39.1414 97.4076 39.1775 97.3367C39.2657 97.1633 39.3665 96.965 39.4662 96.7543C40.0545 95.5115 40.6908 93.6635 40.3244 90.5946C40.323 90.5827 40.3212 90.5709 40.3191 90.5591C39.2356 84.5256 38.6579 80.8801 38.5005 77.8346C38.344 74.8079 38.602 72.3599 39.2174 68.7225C39.2174 68.7225 39.2174 68.7225 39.2174 68.7225C39.9861 64.1829 41.0608 59.7002 43.1778 55.8093C43.1778 55.8093 43.1778 55.8093 43.1778 55.8093C44.504 53.3721 46.2268 51.1929 48.1522 49.2394C52.078 45.2561 56.8377 42.2217 61.995 40.431C64.5618 39.5396 68.5271 38.7622 72.5914 38.3201M87.4971 52.9091L89.9362 52.5054L89.9369 52.5053C90.1284 52.4734 90.3934 52.4232 90.6431 52.312C90.8873 52.2032 91.1541 52.0192 91.3232 51.7045C91.3309 51.6957 91.3411 51.6843 91.3542 51.6699C91.4036 51.6158 91.4767 51.5397 91.5736 51.4417C91.7664 51.2467 92.0363 50.9822 92.3597 50.6687C92.697 50.3417 93.0847 49.9689 93.4978 49.5718C93.8811 49.2032 94.2862 48.8137 94.6932 48.4203C95.532 47.6095 96.3678 46.7923 96.9866 46.1551C97.2946 45.8379 97.5575 45.5564 97.7418 45.3388C97.8321 45.2323 97.9165 45.1259 97.979 45.0302C98.0089 44.9844 98.0484 44.9193 98.0787 44.844C98.0939 44.8061 98.1145 44.7471 98.125 44.6741C98.1349 44.6049 98.142 44.4793 98.0852 44.3388C96.8929 41.3911 94.7358 39.7723 92.1686 38.7881C89.9203 37.9261 87.3121 37.5357 84.7399 37.1507C84.4174 37.1025 84.0954 37.0543 83.7748 37.0052C80.7854 36.5482 76.5662 36.6594 72.4594 37.1061C68.3497 37.5531 64.2832 38.3436 61.5944 39.2774C56.2546 41.1315 51.3357 44.2696 47.2825 48.3822C45.2954 50.3983 43.4971 52.6676 42.1051 55.2256C39.8895 59.2979 38.7883 63.9422 38.0133 68.5186C37.391 72.1969 37.1179 74.744 37.2809 77.8976C37.4428 81.0291 38.0344 84.7447 39.1139 90.757C39.4442 93.5499 38.8685 95.1627 38.3625 96.2319C38.2704 96.4264 38.1829 96.5983 38.0978 96.7656C38.0596 96.8407 38.0219 96.9148 37.9845 96.9897C37.8703 97.2179 37.7566 97.4564 37.6821 97.6909C37.6061 97.9303 37.558 98.2033 37.6087 98.495C37.6607 98.7945 37.8059 99.0535 38.016 99.2808C38.9567 100.298 40.3033 100.793 41.7739 100.994C43.2473 101.197 44.9155 101.115 46.585 100.916C48.2427 100.719 49.9364 100.401 51.4805 100.112L51.5227 100.104C53.0926 99.8102 54.4874 99.5505 55.5785 99.4581C55.8549 99.4347 56.0808 99.2279 56.1285 98.9546C56.4767 96.9585 57.434 95.1065 58.8295 93.7903C59.2469 93.3969 59.7137 93.032 60.2079 92.6582C60.3005 92.5881 60.3945 92.5175 60.4892 92.4463C60.8915 92.1438 61.3078 91.8308 61.7005 91.5033C62.6753 90.6903 63.594 89.7176 64.0087 88.3392C64.4231 86.9603 64.212 85.5862 63.8201 84.3017C63.6237 83.6579 63.3769 83.0211 63.1293 82.406C63.07 82.2585 63.0108 82.1128 62.9522 81.9685C62.7633 81.5031 62.5801 81.0521 62.4157 80.6029C61.5187 78.1511 61.1927 75.4766 61.3563 72.851C61.4373 71.544 61.645 70.2958 62.2046 69.268C62.765 68.2386 63.7017 67.516 64.6668 67.4704C65.3237 67.4394 65.9656 67.6896 66.6381 68.131C67.211 68.5069 67.7534 68.9842 68.3154 69.4788C68.4215 69.5721 68.5284 69.6661 68.6362 69.7602C69.3206 70.3572 70.1586 70.9561 71.0509 71.2983C71.9485 71.6425 72.9652 71.7482 73.9206 71.2437C74.7937 70.7828 75.3463 69.9249 75.7395 69.18C77.9806 64.9342 77.821 59.7098 76.7 55.0427C80.2795 54.2322 83.8797 53.5206 87.4971 52.9091ZM91.3026 51.7294C91.3028 51.7294 91.3048 51.7269 91.3081 51.7223C91.3042 51.7272 91.3025 51.7295 91.3026 51.7294Z" fill="#2E58F9"/>
<path d="M80.5 118.5C79 105.5 59.0734 103.7 59.0734 103.7C54.8274 101.555 52.6083 99.5312 53.1944 95.6982L59.7278 52.9698C60.3139 49.1367 63.8963 46.5047 67.7293 47.0908L100.967 52.1731C104.8 52.7592 107.432 56.3415 106.846 60.1745L100.313 102.903C99.7266 106.736 82 131.5 80.5 118.5Z" fill="#FC7EE4" stroke="black" stroke-width="2" stroke-miterlimit="10" stroke-linecap="round" stroke-linejoin="round"/>
<path d="M80.1181 74.1456C80.8096 74.2513 81.5844 72.9357 81.8487 71.2071C82.113 69.4785 81.7668 67.9915 81.0753 67.8858C80.3839 67.78 79.6091 69.0957 79.3448 70.8243C79.0805 72.5529 79.4267 74.0399 80.1181 74.1456Z" fill="black" stroke="black" stroke-width="2" stroke-miterlimit="10" stroke-linecap="round" stroke-linejoin="round"/>
<path d="M71.3546 72.8053C72.046 72.911 72.8208 71.5954 73.0851 69.8668C73.3494 68.1382 73.0032 66.6512 72.3117 66.5454C71.6203 66.4397 70.8455 67.7553 70.5812 69.4839C70.3168 71.2125 70.6631 72.6996 71.3546 72.8053Z" fill="black" stroke="black" stroke-width="2" stroke-miterlimit="10" stroke-linecap="round" stroke-linejoin="round"/>
<path d="M100.788 52.1451L67.0902 46.9925C63.158 46.3912 59.491 49.0372 58.9 52.9023L58.6948 54.2448L94.9244 59.7846L93.1658 71.2859L99.4058 69.227C100.674 68.9136 102.027 68.8396 103.403 69.05L105.441 69.3616L105.792 67.0617L105.814 66.9176L106.837 60.2329C107.428 56.3672 104.72 52.7465 100.788 52.1451Z" fill="#2E58F9" stroke="#2E58F9" stroke-width="2" stroke-miterlimit="10" stroke-linecap="round" stroke-linejoin="round"/>
<path d="M74.5593 80.2804C75.8773 80.4819 77.1091 79.5768 77.3107 78.2588C77.5122 76.9408 76.6071 75.709 75.2891 75.5075C73.9711 75.306 72.7393 76.211 72.5377 77.529C72.3362 78.847 73.2413 80.0789 74.5593 80.2804Z" fill="black" stroke="black" stroke-width="2" stroke-miterlimit="10" stroke-linecap="round" stroke-linejoin="round"/>
<path d="M69.0085 83.2773C69.0085 83.2773 73.2608 88.7756 78.9707 84.8006" stroke="black" stroke-width="2" stroke-miterlimit="10" stroke-linecap="round" stroke-linejoin="round"/>
<path d="M133.256 119.181L107.893 100.289C107.893 100.289 107.872 100.96 107.852 100.305L82.691 111.688L44.0621 133.852C54.4298 139.799 66.7151 145.25 79.5247 145.25C101.175 145.249 120.264 134.491 133.256 119.181Z" fill="black" stroke="black" stroke-width="2" stroke-miterlimit="10" stroke-linecap="round" stroke-linejoin="round"/>
<path d="M92.8052 106.43C92.4716 104.665 95.662 95.6915 98.3422 93.8601C100.865 90.8993 103.937 88.7023 103.284 86.6802C102.629 84.6519 103.898 82.5743 104.676 80.5893C105.499 78.4904 105.79 76.1992 105.634 73.9506C105.557 72.8392 105.363 71.7076 104.804 70.7437C104.245 69.7799 103.265 69.0056 102.153 68.937C100.659 68.8449 99.4078 69.964 98.2384 70.8976C97.0689 71.8318 95.4777 72.6733 94.1445 71.9934C93.5204 71.6752 93.0906 71.0753 92.7467 70.4639C90.7444 66.9041 90.9467 62.4827 92.0395 58.5468C88.4203 57.7073 84.7776 56.973 81.1155 56.3452L82.5818 56.5985C81.6098 56.4312 80.6377 56.264 79.665 56.0966C79.334 56.0393 78.9558 55.9494 78.8042 55.6498C78.6669 55.3785 78.7786 55.0521 78.8995 54.7733C80.8706 50.229 85.224 46.9541 90.0066 45.6619C94.7884 44.3695 97.0391 40.3962 106.533 44.0831C111.043 46.2627 114.966 49.8428 118.049 54.0395C119.591 56.1379 120.511 57.7454 121.728 59.8447C123.667 63.1915 124.647 67.0054 125.345 70.8098C126.465 76.9161 126.869 83.4344 124.413 89.1355C123.831 90.4859 123.084 91.7865 122.042 92.8237C119.175 95.6761 96.8286 106.819 92.8052 106.43Z" fill="#2E58F9" stroke="#2E58F9" stroke-width="2" stroke-miterlimit="10" stroke-linecap="round" stroke-linejoin="round"/>
<path d="M96.7489 87.2828C98.044 88.0806 99.5488 88.5938 101.19 88.7226C106.118 89.1088 110.68 85.6512 111.65 80.8041C112.768 75.2262 108.998 69.9061 103.438 69.0559" fill="#FC7EE4"/>
<path d="M96.7489 87.2828C98.044 88.0806 99.5488 88.5938 101.19 88.7226C106.118 89.1088 110.68 85.6512 111.65 80.8041C112.768 75.2262 108.998 69.9061 103.438 69.0559" stroke="black" stroke-width="2" stroke-miterlimit="10" stroke-linecap="round" stroke-linejoin="round"/>
</g>
</svg>
