<svg id="参考线" xmlns="http://www.w3.org/2000/svg" xmlns:xlink="http://www.w3.org/1999/xlink" viewBox="0 0 227.29 460.52"><defs><style>.cls-1,.cls-17{fill:none;}.cls-2{clip-path:url(#clip-path);}.cls-3{fill:#f1f1f1;}.cls-18,.cls-4{font-size:12px;}.cls-4{fill:#231815;}.cls-18,.cls-4,.cls-5{font-family:KozGoPr6N-Regular-90ms-RKSJ-H, Kozuka Gothic Pr6N;}.cls-5{font-size:9px;fill:#6a6969;}.cls-6{letter-spacing:0.25em;}.cls-7{letter-spacing:0.25em;}.cls-8{letter-spacing:0.09em;}.cls-9{letter-spacing:0.08em;}.cls-10,.cls-18{fill:#ebd43d;}.cls-11{fill:#b95050;}.cls-12{fill:#685956;}.cls-13{fill:#c87e7f;}.cls-14{fill:#cb9180;}.cls-15{fill:#e1b2a1;}.cls-16{fill:#373d44;}.cls-17{stroke:#fff;stroke-miterlimit:10;stroke-width:0.72px;}.cls-19{fill:#f2e38a;}</style><clipPath id="clip-path"><rect class="cls-1" x="-9.14" y="-7.3" width="245.29" height="472.42"/></clipPath></defs><g class="cls-2"><path class="cls-3" d="M2.69,0H224.31a2.83,2.83,0,0,1,2.83,2.83V457.74a2.83,2.83,0,0,1-2.83,2.83H2.69a2.84,2.84,0,0,1-2.84-2.84V2.88A2.84,2.84,0,0,1,2.69,0Z"/></g><text class="cls-4" transform="translate(1.86 10.61)"> </text><text class="cls-5" transform="translate(32.6 371.17)">即時性</text><text class="cls-5" transform="translate(164.27 377.83)">便利性</text><text class="cls-5" transform="translate(90.58 458.71)">多様性</text><text class="cls-4" transform="translate(110.41 55.48)">鹿思思</text><text class="cls-4" transform="translate(24.78 143.9)">問題点</text><text class="cls-4" transform="translate(24.78 264.8)">ニーズ</text><text class="cls-4" transform="translate(110.41 75.84)">2<tspan class="cls-6" x="6.61" y="0">2</tspan><tspan x="16.22" y="0">歳</tspan></text><text class="cls-4" transform="translate(110.41 96.19)">客室乗務員</text><text class="cls-4" transform="translate(32.6 164.25)">仕事<tspan class="cls-7" x="24" y="0">で1日</tspan><tspan x="63.61" y="0">1</tspan><tspan class="cls-6" x="70.22" y="0">0</tspan><tspan x="79.84" y="0">時間立ちます</tspan></text><text class="cls-4" transform="translate(32.6 180.25)"><tspan class="cls-8">効率が低いた</tspan><tspan x="78.12" y="0">め</tspan><tspan class="cls-8" x="90.12" y="0">、乗客から</tspan><tspan x="155.22" y="0">頻</tspan></text><text class="cls-4" transform="translate(32.6 196.24)">繁に苦情が寄せられています</text><text class="cls-4" transform="translate(32.6 212.24)">乗客の購入率と手数料は低い</text><text class="cls-4" transform="translate(32.6 285.14)">より効率的な供給する方法</text><text class="cls-4" transform="translate(32.6 301.14)"><tspan class="cls-9">ユーザーの購入率と満足度</tspan><tspan x="155.23" y="0">を</tspan></text><text class="cls-4" transform="translate(32.6 317.13)">向上させる</text><text class="cls-4" transform="translate(32.6 333.13)"><tspan class="cls-9">ユーザーフィードバックを</tspan><tspan x="155.23" y="0">得</tspan></text><text class="cls-4" transform="translate(32.6 349.12)">る</text><g class="cls-2"><path class="cls-10" d="M57.49,96.22a38,38,0,1,0-38-38,38,38,0,0,0,38,38"/><path class="cls-11" d="M26.45,100.73s6.11-30,32.38-30,29.7,30,29.7,30Z"/><path class="cls-12" d="M39.25,69.92s23.47-4.31,35.84-.24c3.32-8.54,10.18-49.84-15.4-50.42-27.51-.64-22.95,44.29-20.44,50.66"/><path class="cls-13" d="M44.64,44.36a4.88,4.88,0,1,1-4.87-4.88,4.87,4.87,0,0,1,4.87,4.88"/><path class="cls-13" d="M80.84,44.36A4.88,4.88,0,1,1,76,39.48a4.87,4.87,0,0,1,4.87,4.88"/><path class="cls-14" d="M64.16,60.52l-.82-10.83-8.46,1.16L53.5,66.68a15.29,15.29,0,0,0,10.66-6.16"/><path class="cls-15" d="M41.7,34a13.45,13.45,0,0,0-.47,3.9,46.06,46.06,0,0,0,.15,7.79c.57,5.11,3,9.57,7.65,12S60,61.08,65,59a14.74,14.74,0,0,0,8.32-8.2C75,46.52,75.05,41,74.82,36.32c-.87-17.31-15-17-15-17S46.89,21,41.7,34"/><path class="cls-15" d="M53.5,66.68l-.61,7s.25,3.49,5.89,4.15,6.3-5.22,6.3-5.22l-.92-12A15.29,15.29,0,0,1,53.5,66.68"/><path class="cls-16" d="M49.48,43.49c0,1-.39,1.73-.86,1.73s-.87-.77-.87-1.73.39-1.73.87-1.73.86.78.86,1.73"/><path class="cls-16" d="M68.08,44.19c0,1-.38,1.73-.86,1.73s-.87-.78-.87-1.73.39-1.73.87-1.73.86.77.86,1.73"/><path class="cls-16" d="M58.13,44.36l-1,.64c-.3.21-.65.49-.66.7s0,.19.18.31a1.09,1.09,0,0,0,.42.26,1.38,1.38,0,0,0,1.06-.18,1.18,1.18,0,0,1-1.13.54,1.21,1.21,0,0,1-.63-.28.8.8,0,0,1-.37-.69,1,1,0,0,1,.4-.64,2.43,2.43,0,0,1,.55-.33,3.86,3.86,0,0,1,1.18-.33"/><path class="cls-16" d="M55.73,48.42a7.47,7.47,0,0,0,1.18.63,3.69,3.69,0,0,0,1.24.3,2.55,2.55,0,0,0,1.21-.24,5.68,5.68,0,0,0,1.14-.69,5.34,5.34,0,0,1-.41.56,3.12,3.12,0,0,1-.56.46,2.29,2.29,0,0,1-1.4.37,3.16,3.16,0,0,1-2.4-1.39"/><path class="cls-12" d="M39.77,36.5S58.67,34.74,59,24.05c1.51,9,9.6,10.08,17.93,11.92,0,0-2.63-18.18-19-16.72-3.47.31-6.5,2.33-9.09,4.38-5.86,4.62-8.44,11.48-9,12.87"/><path class="cls-12" d="M60.16,20s1.1-6.29-.43-6.63S59,19.27,59,19.27s-.49-3.84-2.76-3.75,2.23,4.41,3.93,4.5"/><path class="cls-13" d="M49.38,49.59a1.82,1.82,0,1,1-1.82-1.82,1.81,1.81,0,0,1,1.82,1.82"/><path class="cls-13" d="M69.9,49.59a1.82,1.82,0,1,1-1.82-1.82,1.81,1.81,0,0,1,1.82,1.82"/><path class="cls-17" d="M53.51,43.84s4.87-3.86,8.26.35m13.39,0a6.7,6.7,0,1,1-6.69-6.67A6.68,6.68,0,0,1,75.16,44.19Zm-21.55,0a6.7,6.7,0,1,1-6.69-6.67A6.67,6.67,0,0,1,53.61,44.19Z"/><path class="cls-12" d="M65,39.75a4.06,4.06,0,0,1,1.24-1.27A3.81,3.81,0,0,1,68,37.85a3.34,3.34,0,0,1,1.82.31,3.69,3.69,0,0,1,1.37,1.13c-.27-.12-.51-.27-.77-.39a6.09,6.09,0,0,0-.78-.28A3.83,3.83,0,0,0,68,38.47a6.72,6.72,0,0,0-3,1.28"/><path class="cls-12" d="M50.51,39.71a5.25,5.25,0,0,0-3.19-1.22,7.15,7.15,0,0,0-1.71.21c-.28.07-.56.18-.85.25a8.1,8.1,0,0,1-.87.3c.23-.2.48-.39.73-.57s.55-.32.84-.44a4.91,4.91,0,0,1,1.87-.37,3.9,3.9,0,0,1,1.86.51,3.19,3.19,0,0,1,1.32,1.33"/></g><text class="cls-18" transform="translate(23.5 122.88)">ケータリングサービスを担当する</text><g class="cls-2"><path class="cls-10" d="M26.45,162a1.68,1.68,0,1,0-1.67-1.68A1.68,1.68,0,0,0,26.45,162"/><path class="cls-10" d="M26.45,282.85a1.68,1.68,0,1,0-1.67-1.67,1.68,1.68,0,0,0,1.67,1.67"/><path class="cls-10" d="M26.45,178.27a1.68,1.68,0,1,0-1.67-1.67,1.68,1.68,0,0,0,1.67,1.67"/><path class="cls-10" d="M26.45,299.17a1.68,1.68,0,1,0-1.67-1.67,1.68,1.68,0,0,0,1.67,1.67"/><path class="cls-10" d="M26.45,209.52a1.68,1.68,0,1,0-1.67-1.67,1.68,1.68,0,0,0,1.67,1.67"/><path class="cls-10" d="M26.45,330.43a1.68,1.68,0,1,0-1.67-1.68,1.68,1.68,0,0,0,1.67,1.68"/><path class="cls-10" d="M126.79,395.52H126a15.59,15.59,0,1,1-4.56-11,15.56,15.56,0,0,1,4.56,11h1.6a17.19,17.19,0,1,0-17.18,17.18,17.19,17.19,0,0,0,17.18-17.18Z"/><path class="cls-10" d="M142.79,395.52H142a31.58,31.58,0,1,1-9.25-22.34A31.47,31.47,0,0,1,142,395.52h1.6a33.19,33.19,0,1,0-33.18,33.18,33.18,33.18,0,0,0,33.18-33.18Z"/><path class="cls-10" d="M159.69,395.52h-.8a48.48,48.48,0,1,1-14.2-34.28,48.35,48.35,0,0,1,14.2,34.28h1.6a50.08,50.08,0,1,0-50.08,50.08,50.08,50.08,0,0,0,50.08-50.08Z"/></g><rect class="cls-10" x="109.61" y="395.52" width="1.6" height="49.28"/><rect class="cls-10" x="107.11" y="382.86" width="49.28" height="1.6" transform="translate(-174.17 117.27) rotate(-30)"/><polygon class="cls-10" points="110.81 395.28 81.64 378.44 68.13 370.64 67.33 372.03 80.84 379.83 110.01 396.67 110.81 395.28"/><g class="cls-2"><path class="cls-19" d="M145.48,374.8l-8.69.59a34.18,34.18,0,0,1,2.16,3.18Zm-10.62.72L83.49,379l-.24.39,12.48,7.21a17.19,17.19,0,0,1,29.36,0l12.47-7.21a31.28,31.28,0,0,0-2.7-3.85m-24.45,4.41a15.53,15.53,0,0,0-11,4.57,15.08,15.08,0,0,0-2.27,2.88l13.29,7.67,13.29-7.67a15.6,15.6,0,0,0-13.29-7.45"/><path class="cls-10" d="M110.41,378.33a17.17,17.17,0,0,0-14.68,8.25l1.39.8a15.08,15.08,0,0,1,2.27-2.88,15.58,15.58,0,0,1,24.31,2.88l1.39-.8a17.18,17.18,0,0,0-14.68-8.25"/><path class="cls-10" d="M136.79,375.39l-1.93.13a31.28,31.28,0,0,1,2.7,3.85l1.39-.8a34.18,34.18,0,0,0-2.16-3.18M83.49,379l-.82.06.58.33.24-.39"/><path class="cls-19" d="M145.67,376.54,139.73,380c.38.71.74,1.44,1.06,2.18Zm-7.32,4.23L125.86,388a17.15,17.15,0,0,1,1.73,7.54,15.66,15.66,0,0,1-.11,1.94l12.15-14c-.39-.94-.82-1.85-1.28-2.73m-13.88,8-13.26,7.66v14.64a15.51,15.51,0,0,0,5.61-1.35l8.55-9.84a15.39,15.39,0,0,0,.62-4.37h0a15.5,15.5,0,0,0-1.52-6.74m-9.77,23.38a16.7,16.7,0,0,1-3.49.52v3.5Z"/><path class="cls-10" d="M125.86,388l-1.39.8a15.5,15.5,0,0,1,1.52,6.74h1.6a17.15,17.15,0,0,0-1.73-7.54m1.73,7.54H126a15.39,15.39,0,0,1-.62,4.37l2.11-2.43a15.66,15.66,0,0,0,.11-1.94m-10.77,14.21a15.51,15.51,0,0,1-5.61,1.35v1.6a16.7,16.7,0,0,0,3.49-.52Z"/><path class="cls-10" d="M139.73,380l-1.38.8c.46.88.89,1.79,1.28,2.73l1.16-1.35c-.32-.74-.68-1.47-1.06-2.18"/><path class="cls-19" d="M82.51,380.79l10.73,14A17.11,17.11,0,0,1,95,388Zm13.84,8a15.5,15.5,0,0,0-1.53,6.74c0,.46,0,.92.06,1.37l10.2,13.28a15.52,15.52,0,0,0,4.53.91V396.44Zm10.37,23.53,2.89,3.75v-3.38a17.17,17.17,0,0,1-2.89-.37"/><path class="cls-10" d="M95,388a17.11,17.11,0,0,0-1.72,6.78l1.64,2.13c0-.45-.06-.91-.06-1.37a15.5,15.5,0,0,1,1.53-6.74Zm10.12,22.19,1.64,2.14a17.17,17.17,0,0,0,2.89.37v-1.6a15.52,15.52,0,0,1-4.53-.91"/></g><polygon class="cls-10" points="110.41 395.98 110.01 396.67 109.61 396.44 109.61 411.08 109.61 412.68 109.61 416.06 110.41 417.1 111.21 416.18 111.21 412.68 111.21 411.08 111.21 396.44 110.81 396.67 110.41 395.98"/><polygon class="cls-10" points="147.29 374.68 145.48 374.8 138.95 378.57 137.56 379.37 125.09 386.58 123.7 387.38 110.41 395.05 110.81 395.28 110.41 395.98 110.81 396.67 111.21 396.44 124.47 388.78 125.86 387.98 138.35 380.77 139.73 379.97 145.67 376.54 147.29 374.68"/><polygon class="cls-10" points="82.67 379.04 81.24 379.13 82.51 380.79 94.96 387.98 96.35 388.78 109.61 396.44 110.01 396.67 110.41 395.98 110.81 395.28 110.41 395.05 97.12 387.38 95.73 386.58 83.25 379.37 82.67 379.04"/></svg>