<svg id="参考线" xmlns="http://www.w3.org/2000/svg" xmlns:xlink="http://www.w3.org/1999/xlink" viewBox="0 0 227.29 460.52"><defs><style>.cls-1{fill:none;}.cls-2{fill:#f1f1f1;}.cls-16,.cls-3{font-size:12px;}.cls-3,.cls-5{fill:#231815;}.cls-16,.cls-3,.cls-4{font-family:KozGoPr6N-Regular-90ms-RKSJ-H, Kozuka Gothic Pr6N;}.cls-4{font-size:9px;fill:#6a6969;}.cls-6{letter-spacing:0.25em;}.cls-7{letter-spacing:0.08em;}.cls-8{letter-spacing:0.09em;}.cls-9{clip-path:url(#clip-path);}.cls-10,.cls-16{fill:#81b7ac;}.cls-11{fill:#b05959;}.cls-12{fill:#e1b2a1;}.cls-13{fill:#373d44;}.cls-14{fill:#c87e7f;}.cls-15{fill:#cb9180;}.cls-17{fill:#b6d3cb;}</style><clipPath id="clip-path"><rect class="cls-1" x="-9.01" y="-7.34" width="245.29" height="472.42"/></clipPath></defs><path class="cls-2" d="M2.83,0H224.44a2.83,2.83,0,0,1,2.83,2.83V457.7a2.83,2.83,0,0,1-2.83,2.83H2.83A2.84,2.84,0,0,1,0,457.7V2.84A2.84,2.84,0,0,1,2.83,0Z"/><rect class="cls-1" x="-9.01" y="-7.34" width="245.29" height="472.42"/><text class="cls-3" transform="translate(1.99 10.57)"> </text><text class="cls-4" transform="translate(32.73 371.13)">即時性</text><text class="cls-4" transform="translate(164.4 377.79)">便利性</text><text class="cls-4" transform="translate(90.72 458.67)">多様性</text><path class="cls-5" d="M115,48.57c0,.1-.11.14-.26.14a13.31,13.31,0,0,1-2.18,5.11,6.09,6.09,0,0,0-.75-.43,11.48,11.48,0,0,0,2.09-5Zm2.1-3.07,1.1.06c0,.1-.08.16-.25.17V55.3c0,.62-.17.87-.58,1a9.63,9.63,0,0,1-2.3.15,3.25,3.25,0,0,0-.35-.85l1.44,0c.84,0,.94,0,.94-.34ZM122.39,54A20.07,20.07,0,0,0,120,48.57l.77-.3a19.83,19.83,0,0,1,2.44,5.4Zm12.1-3.13h-4.41a6.69,6.69,0,0,0,5,4.83,5.48,5.48,0,0,0-.55.76,7.19,7.19,0,0,1-5-4.72c-.48,1.8-1.78,3.54-5.13,4.72a2.6,2.6,0,0,0-.49-.7c3.55-1.25,4.63-3.08,4.94-4.89h-4.36v-.83H129a6.19,6.19,0,0,0,0-.74V47.11h-4.84v-.83h10.68v.83h-5v2.22a6.19,6.19,0,0,1,0,.74h4.69Z"/><text class="cls-3" transform="translate(24.91 143.86)">問題点</text><text class="cls-3" transform="translate(24.91 264.76)">ニーズ</text><text class="cls-3" transform="translate(110.54 75.79)">2<tspan class="cls-6" x="6.61" y="0">7</tspan><tspan x="16.22" y="0">歳</tspan></text><text class="cls-3" transform="translate(110.54 96.15)">雑誌編集者</text><text class="cls-3" transform="translate(32.73 164.21)"><tspan class="cls-7">旅行中にたくさんの食べ物</tspan><tspan x="155.23" y="0">を</tspan></text><text class="cls-3" transform="translate(32.73 180.21)">持っていく必要がある</text><text class="cls-3" transform="translate(32.73 196.2)"><tspan class="cls-8">長い旅なの</tspan><tspan x="65.1" y="0">で</tspan><tspan class="cls-8" x="77.1" y="0">、退屈な時間</tspan><tspan x="155.22" y="0">が</tspan></text><text class="cls-3" transform="translate(32.73 212.2)">ある</text><text class="cls-3" transform="translate(32.73 228.19)"><tspan class="cls-8">戻るときお土産を購入</tspan><tspan x="130.2" y="0">し</tspan><tspan class="cls-8" x="142.2" y="0">、</tspan><tspan x="155.22" y="0">負</tspan></text><text class="cls-3" transform="translate(32.73 244.19)">担を増やす</text><text class="cls-3" transform="translate(32.73 285.09)">旅行中の食料と水の供給</text><text class="cls-3" transform="translate(32.73 301.08)"><tspan class="cls-7">お土産の購入および流通サ</tspan><tspan x="155.23" y="0">ー</tspan></text><text class="cls-3" transform="translate(32.73 317.08)">ビス</text><text class="cls-3" transform="translate(32.73 333.07)">エンターテイメント</text><g class="cls-9"><path class="cls-10" d="M57.63,96.17a38,38,0,1,0-38-38,38,38,0,0,0,38,38"/><path class="cls-11" d="M41.75,34.05c-1.19,2.53-1.1,5.46-1.59,8.22-1.46,8.24-7.88,14.47-12.83,21.17A12,12,0,0,0,25,67.82a4.58,4.58,0,0,0,1.34,4.54A4.91,4.91,0,0,1,28,68.53a14.05,14.05,0,0,1,3.59-2.29A8.75,8.75,0,0,0,29,71.77c0,3.33,2.76,5.91,5.45,7.81,6,4.27,13.17,7.59,20.47,6.8,4.58-.49,8.85-2.56,12.78-5,4.38-2.69,5.76-8,6.86-12.77,1.91-8.33,1.7-16.9,1.56-25.39-.05-2.94-1.54-4.94-2.94-7.58-2-3.86-6.24-6.13-10.49-6.83s-8.59,0-12.83.69C47,30,43,31.34,41.75,34.05"/><path class="cls-12" d="M60.21,94.29c14.53.52,16.73-11.64,16.64-19.55A27.37,27.37,0,0,0,59.37,69a29.53,29.53,0,0,0-17.95,5.75c-.13,4.78,1,18.93,18.79,19.57"/><path class="cls-13" d="M76.85,74.74c.09,7.91-2.11,20.07-16.64,19.55C42.4,93.65,41.29,79.5,41.42,74.72c-12.43,9.14-15.81,26-15.81,26H90.35s-1.9-16.81-13.5-25.95"/><path class="cls-14" d="M44.58,41a5.09,5.09,0,1,1-5.09-5.16A5.13,5.13,0,0,1,44.58,41"/><path class="cls-14" d="M82.33,41a5.09,5.09,0,1,1-5.09-5.16A5.13,5.13,0,0,1,82.33,41"/><path class="cls-15" d="M64.93,59.74l-.86-11.46-8.81,1.23L53.82,66.26a15.81,15.81,0,0,0,11.11-6.52"/><path class="cls-11" d="M47.62,35.15c10.15-2.25,12.16-12.48,16.7-13.71-1.14,2,2.4,14.37,11.83,14.37,0-1.13-.05-2.24-.1-3.32-.91-18.31-15.6-18-15.6-18S41.18,13,40.93,35.52a17.39,17.39,0,0,0,6.69-.37"/><path class="cls-12" d="M64.32,21.44c-4.54,1.23-6.55,11.46-16.7,13.71a17.39,17.39,0,0,1-6.69.37c0,.19,0,.38,0,.58a28.92,28.92,0,0,0,.26,6.3c.59,5.41,3.14,10.12,8,12.74s11.46,3.56,16.63,1.4a15.54,15.54,0,0,0,8.68-8.67c1.41-3.58,1.73-7.95,1.68-12.06-9.43,0-13-12.33-11.83-14.37"/><path class="cls-12" d="M53.82,66.26l-.64,7.38s.26,3.68,6.14,4.38,6.57-5.53,6.57-5.53l-1-12.75a15.81,15.81,0,0,1-11.11,6.52"/><path class="cls-13" d="M51.32,39.78c0,1-.4,1.83-.9,1.83s-.9-.82-.9-1.83.4-1.83.9-1.83.9.82.9,1.83"/><path class="cls-13" d="M68,40.09c0,1-.4,1.83-.9,1.83s-.9-.82-.9-1.83.4-1.83.9-1.83.9.82.9,1.83"/><path class="cls-13" d="M58.65,41c-.37.22-.72.44-1.06.67s-.68.52-.69.75a.43.43,0,0,0,.19.34,1.15,1.15,0,0,0,.45.27,1.43,1.43,0,0,0,1.11-.2,1.27,1.27,0,0,1-1.18.56,1.32,1.32,0,0,1-.66-.29.86.86,0,0,1-.37-.73,1,1,0,0,1,.41-.67,2.82,2.82,0,0,1,.57-.35A3.77,3.77,0,0,1,58.65,41"/><path class="cls-13" d="M56.14,45.3a6.79,6.79,0,0,0,1.23.68,3.5,3.5,0,0,0,1.29.32,2.56,2.56,0,0,0,1.27-.25,5.57,5.57,0,0,0,1.18-.75,5,5,0,0,1-.43.6,3,3,0,0,1-.58.48,2.42,2.42,0,0,1-1.46.39,3.33,3.33,0,0,1-2.5-1.47"/><path class="cls-14" d="M51.42,44.64a1.9,1.9,0,1,1-1.9-1.93,1.91,1.91,0,0,1,1.9,1.93"/><path class="cls-14" d="M69,45.5a1.9,1.9,0,1,1-1.9-1.92A1.91,1.91,0,0,1,69,45.5"/><path class="cls-11" d="M61.11,15.69s-1.39-5,0-5.25.85,4.12.85,4.12.91-2.77,2.24-2-1.34,3.16-3.09,3.17"/></g><text class="cls-16" transform="translate(29.63 122.84)">家族や友人と旅行するのが好き</text><g class="cls-9"><path class="cls-10" d="M26.59,161.91a1.68,1.68,0,1,0-1.68-1.68,1.68,1.68,0,0,0,1.68,1.68"/><path class="cls-10" d="M26.59,282.81a1.68,1.68,0,1,0-1.68-1.68,1.68,1.68,0,0,0,1.68,1.68"/><path class="cls-10" d="M26.59,193.33a1.68,1.68,0,1,0-1.68-1.68,1.68,1.68,0,0,0,1.68,1.68"/><path class="cls-10" d="M26.59,299.13a1.68,1.68,0,1,0-1.68-1.67,1.67,1.67,0,0,0,1.68,1.67"/><path class="cls-10" d="M26.59,209.48a1.68,1.68,0,1,0-1.68-1.67,1.67,1.67,0,0,0,1.68,1.67"/><path class="cls-10" d="M26.59,330.38a1.68,1.68,0,1,0-1.68-1.67,1.67,1.67,0,0,0,1.68,1.67"/><path class="cls-10" d="M126.93,395.48h-.8a15.6,15.6,0,1,1-4.57-11,15.52,15.52,0,0,1,4.57,11h1.6a17.19,17.19,0,1,0-17.19,17.18,17.19,17.19,0,0,0,17.19-17.18Z"/><path class="cls-10" d="M142.93,395.48h-.8a31.58,31.58,0,1,1-9.25-22.34,31.47,31.47,0,0,1,9.25,22.34h1.6a33.19,33.19,0,1,0-33.19,33.18,33.19,33.19,0,0,0,33.19-33.18Z"/><path class="cls-10" d="M159.82,395.48H159a48.48,48.48,0,1,1-14.2-34.28A48.27,48.27,0,0,1,159,395.48h1.6a50.08,50.08,0,1,0-50.08,50.07,50.08,50.08,0,0,0,50.08-50.07Z"/></g><rect class="cls-10" x="109.74" y="395.48" width="1.6" height="49.28"/><rect class="cls-10" x="107.24" y="382.81" width="49.28" height="1.6" transform="translate(-174.14 117.34) rotate(-30)"/><rect class="cls-10" x="88.4" y="358.97" width="1.6" height="49.28" transform="translate(-287.61 269.05) rotate(-60)"/><g class="cls-9"><path class="cls-17" d="M143.87,375.76l-6.13.69c.47.67.92,1.37,1.34,2.08Zm-8,.89L115.28,379a17.24,17.24,0,0,1,9.94,7.58l12.48-7.2a32,32,0,0,0-1.79-2.68m-25.37,3.24a15.52,15.52,0,0,0-11,4.57,15.76,15.76,0,0,0-2.27,2.87L110.54,395l13.3-7.68a15.81,15.81,0,0,0-2.28-2.87,15.49,15.49,0,0,0-11-4.57m-8.26.51L88,382l7.85,4.53a17.32,17.32,0,0,1,6.42-6.13"/><path class="cls-10" d="M115.28,379l-13,1.45a17.32,17.32,0,0,0-6.42,6.13l1.39.8a15.76,15.76,0,0,1,2.27-2.87,15.57,15.57,0,0,1,22,0,15.81,15.81,0,0,1,2.28,2.87l1.38-.8a17.24,17.24,0,0,0-9.94-7.58"/><path class="cls-10" d="M137.74,376.45l-1.83.2a32,32,0,0,1,1.79,2.68l1.38-.8c-.42-.71-.87-1.41-1.34-2.08"/><path class="cls-17" d="M145.1,376.91l-5.23,3a34.36,34.36,0,0,1,1.6,3.48Zm-6.62,3.82L126,387.94a17.18,17.18,0,0,1-14.65,24.7v14.41a31.38,31.38,0,0,0,6.18-.76l22.92-41a30.84,30.84,0,0,0-2-4.52m-13.88,8-13.26,7.66V411a15.59,15.59,0,0,0,14.79-15.56h0a15.5,15.5,0,0,0-1.53-6.74m-8.11,39.39a33.53,33.53,0,0,1-5.15.52v8.7Z"/><path class="cls-10" d="M126,387.94l-1.39.8a15.5,15.5,0,0,1,1.53,6.74h1.6a17.12,17.12,0,0,0-1.74-7.54m1.74,7.54h-1.6A15.59,15.59,0,0,1,111.34,411v1.6a17.19,17.19,0,0,0,16.39-17.16"/><path class="cls-10" d="M139.87,379.92l-1.39.81a30.84,30.84,0,0,1,2,4.52l1-1.84a35.56,35.56,0,0,0-1.6-3.49m-22.35,46.37a31.47,31.47,0,0,1-6.18.76v1.6a33.53,33.53,0,0,0,5.15-.52Z"/><path class="cls-17" d="M87.18,383.37l6.49,15.4a17.82,17.82,0,0,1-.31-3.29,17,17,0,0,1,1.74-7.54Zm9.3,5.37A15.59,15.59,0,0,0,109.74,411V396.4Zm-.08,16.5,9,21.41a30.69,30.69,0,0,0,4.31.4V412.64a17.15,17.15,0,0,1-13.34-7.4m9.76,23.13,3.58,8.51v-8.23a32.41,32.41,0,0,1-3.58-.28"/><path class="cls-10" d="M95.1,387.94a17,17,0,0,0-1.74,7.54,17.82,17.82,0,0,0,.31,3.29l2.73,6.47a17.15,17.15,0,0,0,13.34,7.4V411a15.6,15.6,0,0,1-13.26-22.3Z"/><path class="cls-10" d="M105.43,426.65l.73,1.72a32.41,32.41,0,0,0,3.58.28v-1.6a30.69,30.69,0,0,1-4.31-.4"/></g><polygon class="cls-10" points="110.54 395.93 110.14 396.63 109.74 396.39 109.74 411.04 109.74 412.64 109.74 427.05 109.74 428.65 109.74 436.88 110.54 438.78 111.34 437.35 111.34 428.65 111.34 427.05 111.34 412.64 111.34 411.04 111.34 396.39 110.94 396.63 110.54 395.93"/><polygon class="cls-10" points="145.86 375.54 143.87 375.76 139.08 378.53 137.7 379.33 125.22 386.53 123.83 387.33 110.54 395.01 110.94 395.24 110.54 395.93 110.94 396.63 111.34 396.39 124.6 388.74 125.99 387.94 138.48 380.73 139.87 379.93 145.1 376.9 145.86 375.54"/><polygon class="cls-10" points="88.01 382 86.66 382.15 87.18 383.37 95.09 387.94 96.48 388.74 109.74 396.39 110.14 396.63 110.54 395.93 110.94 395.24 110.54 395.01 97.25 387.33 95.86 386.54 88.01 382"/></svg>