<svg id="参考线" xmlns="http://www.w3.org/2000/svg" xmlns:xlink="http://www.w3.org/1999/xlink" viewBox="0 0 227.29 460.52"><defs><style>.cls-1{fill:none;}.cls-2{clip-path:url(#clip-path);}.cls-3{fill:#f1f1f1;}.cls-16,.cls-4{font-size:12px;}.cls-4,.cls-6{fill:#231815;}.cls-16,.cls-4,.cls-5{font-family:KozGoPr6N-Regular-90ms-RKSJ-H, Kozuka Gothic Pr6N;}.cls-5{font-size:9px;fill:#6a6969;}.cls-7{letter-spacing:0.25em;}.cls-8{letter-spacing:0.08em;}.cls-16,.cls-9{fill:#4087b4;}.cls-10{fill:#685956;}.cls-11{fill:#373d44;}.cls-12{fill:#c87e7f;}.cls-13{fill:#cb9180;}.cls-14{fill:#e1b2a1;}.cls-15{fill:#5761a7;}.cls-17{fill:#92afce;}</style><clipPath id="clip-path"><rect class="cls-1" x="-8.93" y="-7.35" width="245.29" height="472.42"/></clipPath></defs><g class="cls-2"><path class="cls-3" d="M2.9,0H224.52a2.83,2.83,0,0,1,2.83,2.83V457.69a2.83,2.83,0,0,1-2.83,2.83H2.9a2.84,2.84,0,0,1-2.84-2.84V2.84A2.84,2.84,0,0,1,2.9,0Z"/></g><text class="cls-4" transform="translate(2.07 10.56)"> </text><text class="cls-5" transform="translate(32.81 371.12)">即時性</text><text class="cls-5" transform="translate(164.48 377.78)">便利性</text><text class="cls-5" transform="translate(90.79 458.66)">多様性</text><path class="cls-6" d="M113.75,49.55c.31.41,1.12,1.63,1.32,1.93l-.42.6c-.16-.36-.57-1.08-.9-1.63v6H113V50.6a13.9,13.9,0,0,1-1.41,3.52,4.8,4.8,0,0,0-.42-.7,15,15,0,0,0,1.74-4.7h-1.49V48H113V45.3l1,.07c0,.08-.08.14-.23.16V48H115v.74h-1.2Zm8.58-.31c0,.07-.1.1-.21.1a10,10,0,0,1-3.05,3.25,3.74,3.74,0,0,0-.49-.48l-.3.42c-.18-.42-.66-1.27-1-1.91v5.81h-.75v-6A12.07,12.07,0,0,1,114.86,54a4.19,4.19,0,0,0-.42-.67,13.16,13.16,0,0,0,1.93-4.63h-1.18V48h1.3V45.3l1,.07c0,.08-.08.14-.23.16V48h1.48v.46a9.36,9.36,0,0,0,2.44-2.71l.9.3c0,.08-.11.12-.23.12a11,11,0,0,1-2.84,3,3.16,3.16,0,0,0-.49-.47h-1.26v1c.35.48,1.27,1.87,1.48,2.22a8.7,8.7,0,0,0,2.72-3Zm.22,3.21c0,.07-.11.11-.22.12a8.05,8.05,0,0,1-3.91,3.9,2.42,2.42,0,0,0-.55-.61,7.2,7.2,0,0,0,3.78-3.7Z"/><text class="cls-4" transform="translate(24.98 143.85)">問題点</text><text class="cls-4" transform="translate(24.98 264.75)">ニーズ</text><text class="cls-4" transform="translate(110.62 75.79)">3<tspan class="cls-7" x="6.61" y="0">4</tspan><tspan x="16.22" y="0">歳</tspan></text><text class="cls-4" transform="translate(110.62 96.14)">マネージャー</text><text class="cls-4" transform="translate(32.81 164.2)">忙しいので食事時間は不規則</text><text class="cls-4" transform="translate(32.81 180.2)">大きな荷物は持ち運びません</text><text class="cls-4" transform="translate(32.81 196.2)"><tspan class="cls-8">旅行は短すぎてテイクアウ</tspan><tspan x="155.23" y="0">ト</tspan></text><text class="cls-4" transform="translate(32.81 212.19)">予約できません</text><text class="cls-4" transform="translate(32.81 285.09)">いつでも昼食できる</text><text class="cls-4" transform="translate(32.81 301.09)">効率的な購入方法</text><text class="cls-4" transform="translate(32.81 317.08)">便利なピックアップ方法</text><g class="cls-2"><path class="cls-9" d="M57.7,96.17a38,38,0,1,0-38-38,38,38,0,0,0,38,38"/><path class="cls-10" d="M45.11,28.61,39,27S35.35,38.4,40.46,42.31s4.65-13.7,4.65-13.7"/><path class="cls-11" d="M25,101.09s6.44-31.58,34.13-31.58,31.31,31.58,31.31,31.58Z"/><path class="cls-12" d="M44.16,41.66A5.14,5.14,0,1,1,39,36.52a5.14,5.14,0,0,1,5.14,5.14"/><path class="cls-12" d="M82.31,41.66a5.14,5.14,0,1,1-5.13-5.14,5.13,5.13,0,0,1,5.13,5.14"/><path class="cls-13" d="M64.73,60.31,63.87,48.9,55,50.12,53.5,66.8a16,16,0,0,0,11.23-6.49"/><path class="cls-14" d="M43.61,29.38c2.22,2.24-.36,7.73-3.15,7.39A28.62,28.62,0,0,0,40.72,43c.6,5.39,3.17,10.08,8.07,12.69s11.59,3.55,16.81,1.4a15.61,15.61,0,0,0,8.77-8.64c1.82-4.56,1.84-10.39,1.6-15.31-.92-18.24-15.77-18-15.77-18s-11.12.49-16.59,14.17"/><path class="cls-14" d="M53.5,66.8l-.64,7.35s.26,3.67,6.2,4.37S65.7,73,65.7,73l-1-12.7A16,16,0,0,1,53.5,66.8"/><path class="cls-11" d="M51,40.43c0,1-.41,1.83-.91,1.83s-.92-.82-.92-1.83.41-1.82.92-1.82.91.82.91,1.82"/><path class="cls-11" d="M67.86,40.74c0,1-.41,1.83-.91,1.83S66,41.75,66,40.74s.41-1.82.92-1.82.91.82.91,1.82"/><path class="cls-11" d="M58.38,41.66c-.37.22-.72.45-1.06.68s-.68.51-.7.73,0,.2.2.33a1.07,1.07,0,0,0,.44.27,1.45,1.45,0,0,0,1.12-.19,1.27,1.27,0,0,1-1.2.57,1.32,1.32,0,0,1-.66-.29.85.85,0,0,1-.39-.73,1.11,1.11,0,0,1,.42-.68,3.2,3.2,0,0,1,.58-.35,4.22,4.22,0,0,1,1.25-.34"/><path class="cls-11" d="M55.84,45.93a9,9,0,0,0,1.25.68,4.11,4.11,0,0,0,1.3.31,2.76,2.76,0,0,0,1.29-.25,5.84,5.84,0,0,0,1.19-.74,5,5,0,0,1-.43.6,2.75,2.75,0,0,1-.59.48,2.47,2.47,0,0,1-1.48.4,3.4,3.4,0,0,1-2.53-1.48"/><path class="cls-12" d="M51.07,46.55a1.92,1.92,0,1,1-1.92-1.92,1.92,1.92,0,0,1,1.92,1.92"/><path class="cls-12" d="M68.87,46.55A1.92,1.92,0,1,1,67,44.63a1.92,1.92,0,0,1,1.92,1.92"/><path class="cls-10" d="M73.38,33.22c-.49-1.46-.68-3-1.12-4.48A6.72,6.72,0,0,0,69.8,25a6.53,6.53,0,0,0-4.48-.73c-4.1.58-7.63,3.11-11.53,4.49a21.31,21.31,0,0,1-13.44.21,12,12,0,0,1-4.24-2.19,8.73,8.73,0,0,1-2.67-8.83,3.37,3.37,0,0,1,.83-1.53A1.51,1.51,0,0,1,35.89,16c.85.42.89,1.51,1,2.32a7.33,7.33,0,0,0,1.27,3.41c.57-1,.25-2.51.36-3.6a4.68,4.68,0,0,1,1.57-3.32,1.16,1.16,0,0,1,.79-.28c.73.09.82,1.11.78,1.85a9.93,9.93,0,0,0,.62,3.89c-.07-2.28-.09-4.75,1.27-6.58a1.43,1.43,0,0,1,1.3-.72c.58.13.83.83.83,1.42a4.35,4.35,0,0,0,.13,1.77,1.88,1.88,0,0,0,1.7,1,5.8,5.8,0,0,0,2-.48A60,60,0,0,1,64.68,13a11.54,11.54,0,0,1,5.9.64,8.34,8.34,0,0,1,3.72,3.71A18.08,18.08,0,0,1,76,22.43a43.79,43.79,0,0,1,.85,10.09c0,.89.25,3.57-1.14,3.51-1.15-.06-2-1.91-2.31-2.81"/></g><polygon class="cls-15" points="87.43 90.11 28.95 90.11 29.5 89.03 86.98 89.03 87.43 90.11"/><polygon class="cls-15" points="89.59 96.79 26.2 96.79 26.58 95.71 89.31 95.71 89.59 96.79"/><g class="cls-2"><path class="cls-11" d="M64.22,36.8a4.19,4.19,0,0,1,1.31-1.34,4.08,4.08,0,0,1,1.81-.66,3.4,3.4,0,0,1,1.91.33,3.9,3.9,0,0,1,1.45,1.18c-.29-.12-.54-.29-.82-.4a5.05,5.05,0,0,0-.82-.3,3.74,3.74,0,0,0-1.66-.16,7.09,7.09,0,0,0-3.18,1.35"/><path class="cls-11" d="M53,36.35a4,4,0,0,0-3.29-1.44,7,7,0,0,0-1.84.32l-.92.3c-.3.12-.61.24-.93.34.25-.22.52-.42.79-.62a9.5,9.5,0,0,1,.88-.5,5.22,5.22,0,0,1,2-.5,3.63,3.63,0,0,1,2,.52A3,3,0,0,1,53,36.35"/></g><text class="cls-16" transform="translate(23.71 122.84)">常に高速鉄道で出張してくいます</text><g class="cls-2"><path class="cls-9" d="M26.66,161.9A1.68,1.68,0,1,0,25,160.23a1.67,1.67,0,0,0,1.68,1.67"/><path class="cls-9" d="M26.66,282.8A1.68,1.68,0,1,0,25,281.13a1.67,1.67,0,0,0,1.68,1.67"/><path class="cls-9" d="M26.66,176.83A1.68,1.68,0,1,0,25,175.16a1.67,1.67,0,0,0,1.68,1.67"/><path class="cls-9" d="M26.66,298.42A1.68,1.68,0,1,0,25,296.74a1.68,1.68,0,0,0,1.68,1.68"/><path class="cls-9" d="M26.66,193.18A1.68,1.68,0,1,0,25,191.51a1.67,1.67,0,0,0,1.68,1.67"/><path class="cls-9" d="M26.66,314A1.68,1.68,0,1,0,25,312.35,1.68,1.68,0,0,0,26.66,314"/><path class="cls-9" d="M127,395.47h-.8a15.59,15.59,0,1,1-4.56-11,15.52,15.52,0,0,1,4.56,11h1.6a17.19,17.19,0,1,0-17.18,17.18,17.19,17.19,0,0,0,17.18-17.18Z"/><path class="cls-9" d="M143,395.47h-.8A31.58,31.58,0,1,1,133,373.13a31.47,31.47,0,0,1,9.25,22.34h1.6a33.19,33.19,0,1,0-33.18,33.18,33.18,33.18,0,0,0,33.18-33.18Z"/><path class="cls-9" d="M159.9,395.47h-.8a48.48,48.48,0,1,1-14.2-34.28,48.35,48.35,0,0,1,14.2,34.28h1.6a50.08,50.08,0,1,0-50.08,50.08,50.08,50.08,0,0,0,50.08-50.08Z"/></g><rect class="cls-9" x="109.82" y="395.47" width="1.6" height="49.28"/><rect class="cls-9" x="107.32" y="382.81" width="49.28" height="1.6" transform="translate(-174.12 117.37) rotate(-30)"/><polygon class="cls-9" points="111.02 395.23 74.55 374.18 68.34 370.59 67.54 371.98 73.75 375.57 110.22 396.62 111.02 395.23"/><g class="cls-2"><path class="cls-17" d="M75.75,374.87l6.33,3.65a32.23,32.23,0,0,1,2.51-3.64Zm10.91,0a32.47,32.47,0,0,0-3.2,4.44l12.48,7.21a17.19,17.19,0,0,1,29.36,0l12.47-7.2a32,32,0,0,0-3.16-4.4Zm50,.05a34.17,34.17,0,0,1,2.48,3.59l6.21-3.58Zm-26.06,4.95a15.57,15.57,0,0,0-11,4.57,15.4,15.4,0,0,0-2.27,2.88L110.62,395l13.29-7.67a15.83,15.83,0,0,0-2.27-2.88,15.61,15.61,0,0,0-11-4.57"/><path class="cls-9" d="M110.62,378.28a17.17,17.17,0,0,0-14.68,8.25l1.39.8a15.4,15.4,0,0,1,2.27-2.88,15.57,15.57,0,0,1,22,0,15.83,15.83,0,0,1,2.27,2.88l1.39-.8a17.18,17.18,0,0,0-14.68-8.25"/><path class="cls-9" d="M84.59,374.88a32.23,32.23,0,0,0-2.51,3.64l1.38.8a32.47,32.47,0,0,1,3.2-4.44Zm50,.05a32.57,32.57,0,0,1,3.16,4.39l1.39-.8a34.17,34.17,0,0,0-2.48-3.59Z"/><path class="cls-17" d="M76.53,377.17l4.14,4c.2-.42.4-.83.62-1.24Zm6.15,3.55c-.28.53-.55,1.07-.8,1.62l11.65,11.24a17.15,17.15,0,0,1,1.64-5.65Zm13.88,8A15.5,15.5,0,0,0,95,395l14.78,14.26V396.39Z"/><path class="cls-9" d="M95.17,387.93a17.15,17.15,0,0,0-1.64,5.65L95,395a15.5,15.5,0,0,1,1.52-6.31Z"/><path class="cls-9" d="M81.29,379.92c-.22.41-.42.82-.63,1.24l1.22,1.18c.25-.55.52-1.09.8-1.62Z"/><path class="cls-17" d="M144.6,377.23l-4.66,2.69c.22.4.42.81.62,1.22Zm-6,3.49-12.5,7.21a17,17,0,0,1,1.64,5.64l11.64-11.26q-.37-.81-.78-1.59m-13.88,8-13.26,7.66V409.3L126.2,395a15.74,15.74,0,0,0-1.52-6.29"/><path class="cls-9" d="M126.06,387.93l-1.38.8A15.74,15.74,0,0,1,126.2,395l1.5-1.45a17,17,0,0,0-1.64-5.64"/><path class="cls-9" d="M139.94,379.92l-1.39.8c.28.52.54,1,.79,1.59l1.22-1.17c-.2-.41-.4-.82-.62-1.22"/></g><polygon class="cls-9" points="110.62 395.93 110.22 396.62 109.82 396.39 109.82 409.3 110.62 410.08 111.42 409.3 111.42 396.39 111.02 396.62 110.62 395.93"/><polygon class="cls-9" points="145.37 374.94 139.16 378.52 137.77 379.32 125.3 386.53 123.91 387.33 110.62 395 111.02 395.23 111.02 395.23 110.62 395.93 111.02 396.62 111.42 396.39 124.67 388.73 126.06 387.93 138.56 380.72 139.94 379.92 144.6 377.23 146.97 374.94 145.37 374.94"/><polygon class="cls-9" points="74.15 374.87 76.53 377.17 81.29 379.92 82.68 380.72 95.17 387.93 96.56 388.73 109.82 396.39 110.22 396.62 110.62 395.93 111.02 395.23 110.62 395 97.33 387.33 95.94 386.53 83.46 379.32 82.08 378.52 75.75 374.87 74.15 374.87"/></svg>