<svg id="参考线" xmlns="http://www.w3.org/2000/svg" xmlns:xlink="http://www.w3.org/1999/xlink" viewBox="0 0 702.89 428.32"><defs><style>.cls-1,.cls-10,.cls-3,.cls-35,.cls-37,.cls-39,.cls-5,.cls-54,.cls-7{fill:none;}.cls-2,.cls-41{fill:#589e89;}.cls-2{stroke:#9da3ad;opacity:0.13;}.cls-10,.cls-2,.cls-3,.cls-35,.cls-37,.cls-39,.cls-54,.cls-7,.cls-8,.cls-9{stroke-miterlimit:10;}.cls-3,.cls-8{stroke:#55a0cb;}.cls-10,.cls-3,.cls-35,.cls-37,.cls-39,.cls-5,.cls-7,.cls-8,.cls-9{stroke-width:3px;}.cls-4{fill:#55a0cb;}.cls-5,.cls-7{stroke:#f5cd1f;}.cls-5{stroke-linejoin:round;}.cls-6{fill:#f5cd1f;}.cls-8,.cls-9{fill:#fff;}.cls-10,.cls-9{stroke:#589e89;}.cls-11,.cls-33{font-size:10px;}.cls-11{fill:#4b8875;}.cls-11,.cls-19,.cls-33,.cls-42{font-family:NotoSansCJKjp-Regular, NotoSansCJKjp Regular-90ms-RKSJ-H;}.cls-12{letter-spacing:-0.02em;}.cls-13{letter-spacing:-0.01em;}.cls-14{letter-spacing:-0.05em;}.cls-15{letter-spacing:-0.07em;}.cls-16{letter-spacing:-0.06em;}.cls-17{letter-spacing:-0.03em;}.cls-18{letter-spacing:-0.01em;}.cls-19{font-size:8px;fill:#393a3a;}.cls-20,.cls-34{font-size:6px;}.cls-21{letter-spacing:-0.08em;}.cls-22{letter-spacing:-0.06em;}.cls-23{letter-spacing:-0.04em;}.cls-24{letter-spacing:-0.08em;}.cls-25{letter-spacing:0em;}.cls-26{letter-spacing:-0.05em;}.cls-27{letter-spacing:-0.02em;}.cls-28{letter-spacing:-0.1em;}.cls-29{letter-spacing:-0.12em;}.cls-30{letter-spacing:-0.02em;}.cls-31{letter-spacing:-0.11em;}.cls-32{letter-spacing:-0.05em;}.cls-33{fill:#3c3d3d;}.cls-34{fill:#585959;}.cls-35{stroke:#438cbf;}.cls-36{fill:#438cbf;}.cls-37{stroke:#ebcd49;}.cls-38{fill:#ebcd49;}.cls-39{stroke:#409d79;}.cls-40{fill:#409d79;}.cls-42{font-size:15px;fill:#787a7a;}.cls-43{clip-path:url(#clip-path);}.cls-44{fill:#54a0cb;}.cls-45{clip-path:url(#clip-path-2);}.cls-46{clip-path:url(#clip-path-3);}.cls-47{clip-path:url(#clip-path-4);}.cls-48{clip-path:url(#clip-path-5);}.cls-49{clip-path:url(#clip-path-6);}.cls-50{clip-path:url(#clip-path-7);}.cls-51{clip-path:url(#clip-path-8);}.cls-52{fill:#3f9c79;}.cls-53{clip-path:url(#clip-path-9);}.cls-54{stroke:#3f9c79;}.cls-55{clip-path:url(#clip-path-10);}.cls-56{clip-path:url(#clip-path-11);}.cls-57{clip-path:url(#clip-path-12);}.cls-58{clip-path:url(#clip-path-13);}.cls-59{clip-path:url(#clip-path-14);}.cls-60{fill:#efcf48;}.cls-61{clip-path:url(#clip-path-15);}.cls-62{clip-path:url(#clip-path-16);}</style><clipPath id="clip-path"><rect class="cls-1" x="137.68" y="139.9" width="16.82" height="16.82"/></clipPath><clipPath id="clip-path-2"><rect class="cls-1" x="217.85" y="334.23" width="16.82" height="16.82"/></clipPath><clipPath id="clip-path-3"><rect class="cls-1" x="391.02" y="286.99" width="16.82" height="16.82"/></clipPath><clipPath id="clip-path-4"><rect class="cls-1" x="390.98" y="334.23" width="16.82" height="16.82"/></clipPath><clipPath id="clip-path-5"><rect class="cls-1" x="332.48" y="160.39" width="16.82" height="16.82"/></clipPath><clipPath id="clip-path-6"><rect class="cls-1" x="236.54" y="85.34" width="16.82" height="16.82"/></clipPath><clipPath id="clip-path-7"><rect class="cls-1" x="498.91" y="90.59" width="16.82" height="16.82"/></clipPath><clipPath id="clip-path-8"><rect class="cls-1" x="535.89" y="207.26" width="16.82" height="16.82"/></clipPath><clipPath id="clip-path-9"><rect class="cls-1" x="341.71" y="53.75" width="16.85" height="16.82"/></clipPath><clipPath id="clip-path-10"><rect class="cls-1" x="71.96" y="140.49" width="16.85" height="16.82"/></clipPath><clipPath id="clip-path-11"><rect class="cls-1" x="493.04" y="278.58" width="16.85" height="16.82"/></clipPath><clipPath id="clip-path-12"><rect class="cls-1" x="588.31" y="208.43" width="16.85" height="16.82"/></clipPath><clipPath id="clip-path-13"><rect class="cls-1" x="498.89" y="122.3" width="16.85" height="16.82"/></clipPath><clipPath id="clip-path-14"><rect class="cls-1" x="212.48" y="300.75" width="16.82" height="16.82"/></clipPath><clipPath id="clip-path-15"><rect class="cls-1" x="226.26" y="119.18" width="16.82" height="16.82"/></clipPath><clipPath id="clip-path-16"><rect class="cls-1" x="286.34" y="270.17" width="16.82" height="16.82"/></clipPath></defs><path class="cls-2" d="M670.93,359.16c-3.38,5.8-11.7,10.5-22,10.5H280.45c-10.26,0-18.59-4.7-18.59-10.5V32.24c0-5.8,8.33-10.5,18.59-10.5H649c10.26,0,18.58,4.7,22,10.5Z"/><polyline class="cls-3" points="148.56 82.2 262.94 82.2 262.28 162.19"/><polygon class="cls-4" points="257.24 156.18 262.28 161.31 267.41 156.26 267.38 160.58 262.25 165.62 257.2 160.5 257.24 156.18"/><polyline class="cls-5" points="250.59 162.76 250.59 114.54 170.72 114.54 151.41 95.41"/><polygon class="cls-6" points="255.67 156.78 250.59 161.87 245.5 156.78 245.5 161.1 250.59 166.19 255.67 161.1 255.67 156.78"/><polygon class="cls-6" points="159.24 96 152.04 96.03 152.08 103.22 149.01 100.18 148.98 92.99 156.17 92.96 159.24 96"/><line class="cls-3" x1="302.49" y1="206.55" x2="380.93" y2="206.55"/><polygon class="cls-4" points="308.46 211.64 303.38 206.55 308.46 201.46 304.15 201.46 299.06 206.55 304.15 211.64 308.46 211.64"/><polygon class="cls-4" points="374.96 211.64 380.05 206.55 374.96 201.46 379.28 201.46 384.36 206.55 379.28 211.64 374.96 211.64"/><polyline class="cls-3" points="266.32 253 265.94 330.38 528.79 331.36"/><polygon class="cls-4" points="261.21 258.95 266.32 253.88 271.38 259 271.4 254.68 266.34 249.57 261.23 254.63 261.21 258.95"/><polyline class="cls-7" points="278.34 253 278.34 303.73 298.99 320.93 528.93 320.93"/><polygon class="cls-6" points="273.25 258.97 278.34 253.88 283.42 258.97 283.42 254.65 278.34 249.57 273.25 254.65 273.25 258.97"/><polyline class="cls-3" points="286.34 251.04 312.27 269.45 312.27 311.38 526.04 311.38"/><polygon class="cls-4" points="520.07 316.47 525.16 311.38 520.07 306.3 524.38 306.3 529.47 311.38 524.38 316.47 520.07 316.47"/><polyline class="cls-7" points="146.09 320.59 241.59 320.59 241.59 252.47"/><polygon class="cls-6" points="246.67 258.45 241.59 253.36 236.5 258.45 236.5 254.13 241.59 249.04 246.67 254.13 246.67 258.45"/><polyline class="cls-3" points="146.09 329.92 254.34 329.92 254.34 253"/><polygon class="cls-4" points="259.42 258.97 254.34 253.88 249.25 258.97 249.25 254.65 254.34 249.57 259.42 254.65 259.42 258.97"/><polyline class="cls-3" points="431.26 251.38 431.26 275.47 516.59 275.47 531.14 285.49"/><polygon class="cls-4" points="426.17 257.36 431.26 252.27 436.35 257.36 436.35 253.04 431.26 247.95 426.17 253.04 426.17 257.36"/><line class="cls-3" x1="559.84" y1="123.55" x2="559.84" y2="282.87"/><polygon class="cls-4" points="554.75 129.52 559.84 124.44 564.92 129.52 564.92 125.21 559.84 120.12 554.75 125.21 554.75 129.52"/><circle class="cls-8" cx="260.12" cy="206.62" r="30.82"/><circle class="cls-8" cx="421.42" cy="206.62" r="30.82"/><circle class="cls-9" cx="565.32" cy="318.25" r="24.39"/><circle class="cls-10" cx="113.06" cy="318.25" r="24.39"/><circle class="cls-10" cx="113.06" cy="240.06" r="24.39"/><circle class="cls-9" cx="565.32" cy="86.55" r="24.39"/><circle class="cls-10" cx="113.06" cy="86.55" r="24.39"/><line class="cls-3" x1="121.06" y1="120.42" x2="121.06" y2="205.51"/><polygon class="cls-4" points="115.98 126.39 121.06 121.31 126.15 126.39 126.15 122.08 121.06 116.99 115.98 122.08 115.98 126.39"/><polygon class="cls-4" points="115.98 199.54 121.06 204.63 126.15 199.54 126.15 203.86 121.06 208.94 115.98 203.86 115.98 199.54"/><text class="cls-11" transform="translate(52.96 105.83)">鉄道局<tspan x="-2.04" y="12">Railway </tspan><tspan x="-18.42" y="24">Administration</tspan></text><text class="cls-11" transform="translate(595.48 103.92)">乗<tspan class="cls-12" x="10" y="0">務員</tspan><tspan x="-8.06" y="12">Attendant</tspan></text><text class="cls-11" transform="translate(57.07 339.51)">観光局<tspan class="cls-13" x="-3.1" y="12">T</tspan><tspan x="2.09" y="12">ourism </tspan><tspan x="-18.42" y="24">Administration</tspan></text><text class="cls-11" transform="translate(28.9 249.61)"><tspan class="cls-14">サプ</tspan><tspan class="cls-15" x="19" y="0">ラ</tspan><tspan class="cls-16" x="28.3" y="0">イ</tspan><tspan class="cls-17" x="37.7" y="0">ヤ</tspan><tspan class="cls-18" x="47.4" y="0">ー</tspan><tspan x="57.3" y="0" xml:space="preserve">                </tspan><tspan x="10.05" y="12">Supplier</tspan></text><text class="cls-19" transform="translate(60.38 168.63)">商品の流通<tspan class="cls-20"><tspan x="-3.46" y="7.2">Delivery of goods</tspan></tspan></text><text class="cls-19" transform="translate(193.48 91.76)">販売情報<tspan class="cls-20"><tspan x="-7.36" y="7.2">Sales information</tspan></tspan></text><text class="cls-19" transform="translate(302.48 60.69)">商品供給<tspan class="cls-20"><tspan x="-2.4" y="7.2">Supply goods</tspan></tspan></text><text class="cls-19" transform="translate(458.34 95.76)">電車情報<tspan class="cls-20"><tspan class="cls-13" x="-7.27" y="7.2">T</tspan><tspan x="-4.16" y="7.2">rain information</tspan></tspan></text><text class="cls-19" transform="translate(457.96 127.86)">商品供給<tspan class="cls-20"><tspan x="-2.4" y="7.2">Supply goods</tspan></tspan></text><text class="cls-19" transform="translate(532.66 192.11)"><tspan class="cls-13">ニ</tspan><tspan class="cls-21" x="7.92" y="0">ー</tspan><tspan x="15.28" y="0">ズ</tspan><tspan class="cls-20"><tspan x="3.2" y="7.2">Needs</tspan></tspan></text><text class="cls-19" transform="translate(466.99 290.51)"><tspan class="cls-22">取<tspan class="cls-23" x="7.52" y="0">る</tspan></tspan><tspan class="cls-20"><tspan class="cls-12" x="-3.89" y="7.2">T</tspan><tspan x="-0.83" y="7.2">ake out </tspan></tspan></text><text class="cls-19" transform="translate(284.13 295.4)">支払い<tspan class="cls-20"><tspan x="0.05" y="7.2">Payment</tspan></tspan></text><text class="cls-19" transform="translate(333.11 291.5)">旅<tspan class="cls-21" x="8" y="0">行と</tspan><tspan x="22.72" y="0">商品情報</tspan><tspan class="cls-20"><tspan x="3.95" y="7.2">List of goods and </tspan><tspan x="-3.73" y="14.4">information of journey</tspan></tspan></text><text class="cls-19" transform="translate(314.29 188.01)">商<tspan class="cls-21" x="8" y="0">品と</tspan><tspan x="22.72" y="0">注文情報</tspan><tspan class="cls-20"><tspan x="7.61" y="7.2">Information of </tspan><tspan x="3" y="14.4">goods and orders</tspan></tspan></text><text class="cls-19" transform="translate(338.6 341.57)">情<tspan class="cls-21" x="8" y="0">報と</tspan><tspan class="cls-13" x="22.72" y="0">ニ</tspan><tspan class="cls-24" x="30.64" y="0">ー</tspan><tspan class="cls-25" x="38" y="0">ズ</tspan><tspan class="cls-20"><tspan class="cls-13" x="-0.27" y="7.2">T</tspan><tspan x="2.84" y="7.2">rain information </tspan><tspan x="9.04" y="14.4">and needs</tspan></tspan></text><text class="cls-19" transform="translate(171.4 341.93)">観光情報<tspan class="cls-20"><tspan class="cls-13" x="-8.64" y="7.2">T</tspan><tspan x="-5.52" y="7.2">ravel information</tspan></tspan></text><text class="cls-19" transform="translate(167.68 308.83)"><tspan class="cls-12">ス<tspan class="cls-26" x="7.84" y="0">ポ</tspan><tspan class="cls-27" x="15.44" y="0">ン</tspan><tspan class="cls-13" x="23.28" y="0">サー</tspan></tspan><tspan class="cls-20"><tspan x="8.67" y="7.2">Sponsor</tspan></tspan></text><text class="cls-19" transform="translate(588.96 192.11)">配送<tspan class="cls-20"><tspan x="-2.94" y="7.2">Delivery</tspan></tspan></text><text class="cls-19" transform="translate(459.06 264.38)"><tspan class="cls-17">ス<tspan class="cls-28" x="7.76" y="0">キ</tspan><tspan class="cls-29" x="14.96" y="0">ャ</tspan><tspan class="cls-30" x="22" y="0">ン</tspan></tspan><tspan class="cls-20"><tspan x="-8.44" y="7.2">Scan the QR code</tspan></tspan></text><text class="cls-19" transform="translate(193.71 125.08)"><tspan class="cls-31">チ<tspan class="cls-21" x="7.12" y="0">ャ</tspan><tspan class="cls-32" x="14.48" y="0">ー</tspan><tspan class="cls-13" x="22.08" y="0">ジ</tspan></tspan><tspan class="cls-20"><tspan x="5.37" y="7.2">Charge</tspan></tspan></text><text class="cls-19" transform="translate(130.84 165.34)">協力情報<tspan class="cls-20"><tspan x="-0.8" y="7.2">Cooperation</tspan><tspan x="0.11" y="14.4">information</tspan></tspan></text><text class="cls-33" transform="translate(539.87 402.09)">材料の流れ<tspan class="cls-34"><tspan x="7.54" y="7.2">Material flow</tspan></tspan></text><text class="cls-11" transform="translate(601.39 333.63)">乗客<tspan x="-12.79" y="12">Passenger</tspan></text><line class="cls-35" x1="397.41" y1="388.54" x2="452.52" y2="388.54"/><polygon class="cls-36" points="446.55 393.62 451.64 388.54 446.55 383.45 450.87 383.45 455.95 388.54 450.87 393.62 446.55 393.62"/><text class="cls-33" transform="translate(470.91 402.32)">現金の流れ<tspan class="cls-34"><tspan x="11.97" y="7.2">Cash flow</tspan></tspan></text><text class="cls-33" transform="translate(398.65 402.32)">情報の流れ<tspan class="cls-34"><tspan x="2.54" y="7.2">Information flow</tspan></tspan></text><line class="cls-37" x1="468.64" y1="388.54" x2="523.75" y2="388.54"/><polygon class="cls-38" points="517.78 393.62 522.87 388.54 517.78 383.45 522.1 383.45 527.18 388.54 522.1 393.62 517.78 393.62"/><line class="cls-39" x1="538.2" y1="388.54" x2="593.31" y2="388.54"/><polygon class="cls-40" points="587.34 393.62 592.42 388.54 587.34 383.45 591.65 383.45 596.74 388.54 591.65 393.62 587.34 393.62"/><polyline class="cls-3" points="527.42 86.55 411.42 86.55 411.42 165.59"/><polygon class="cls-4" points="521.45 81.46 526.54 86.55 521.45 91.64 525.76 91.64 530.85 86.55 525.76 81.46 521.45 81.46"/><line class="cls-39" x1="149.96" y1="75.23" x2="531.55" y2="75.23"/><polyline class="cls-39" points="414.38 248.57 414.38 300.25 529.47 300.25"/><line class="cls-39" x1="570.51" y1="122.12" x2="570.51" y2="282.84"/><line class="cls-39" x1="109.84" y1="116.99" x2="109.84" y2="207.24"/><polyline class="cls-39" points="425.09 165.3 425.09 118.12 519.78 118.12 529.98 105.6"/><path class="cls-41" d="M108.58,83.72a1.91,1.91,0,0,1,1.76-1.89c1-.08,2-.11,3-.11s2,0,3,.11a1.9,1.9,0,0,1,1.75,1.89v2.46l-2.67.77a1.34,1.34,0,0,0-1,1.3v7.69a1.89,1.89,0,0,0,1.52,1.86L121.69,99a.55.55,0,0,1,.44.53v1.18H104.52V99.48A.54.54,0,0,1,105,99l5.75-1.15a1.9,1.9,0,0,0,1.53-1.86V88.25a1.34,1.34,0,0,0-1-1.3l-2.67-.77Zm7.31-12.59a1.1,1.1,0,0,0,0-.18,1.36,1.36,0,0,0-1.3-1.36c-.43,0-.86,0-1.29,0s-.87,0-1.29,0A1.35,1.35,0,0,0,110.74,71a1,1,0,0,0,0,.18,13.54,13.54,0,0,0-4.07,25.09l1.91-2.51a10.43,10.43,0,1,1,9.45,0c.79,1,1.34,1.75,1.92,2.51a13.54,13.54,0,0,0-4.07-25.09Z"/><path class="cls-41" d="M114.38,227.17l-6.86,2.59L104.3,231l-5.39,2V251h31V233Zm-.71,21.42H101v-14.1l3.45-1.31v3.74l3.59-.51v-4.58l.19-.07,5.4-2Zm14,0H115.09V229.72l12.63,4.77Z"/><path class="cls-41" d="M114.11,316.72l2.42,4.89,1.29-.63-.85,1.5,2.92,5.9a7.65,7.65,0,0,0-5.78-11.66Z"/><path class="cls-41" d="M122.48,313.36a9.59,9.59,0,0,0-8.44,1.86l8.73,2.44.57-2.05.57,2.37,4.85,1.36A9.67,9.67,0,0,0,122.48,313.36Z"/><path class="cls-41" d="M117.82,311.62l-1.3-1.73,2.47.85,1.77-1.33-1.29-1.73,2.47.85,3.68-2.76a8.38,8.38,0,0,0-12,9Z"/><path class="cls-41" d="M106.7,308.86l-1.09,1.6,6.94,4.74a8.14,8.14,0,0,0-11.69-8l3.6,2.46Z"/><path class="cls-41" d="M106.85,316l.61,1.31,4.52-2.11a7.21,7.21,0,0,0-11.45,5.35l2.78-1.3.24-1.49.53,1.13,2.49-1.16Z"/><path class="cls-41" d="M114.47,329.45a33,33,0,0,1-.51-13.7l-1.09-.34c-2.53,4.42-2.55,10.29-2.19,14.13a7.11,7.11,0,0,0-5,6.34h.08c1.17,0,1.17-1.1,2.34-1.1s1.17,1.1,2.35,1.1,1.17-1.1,2.34-1.1,1.17,1.1,2.34,1.1,1.18-1.1,2.35-1.1,1.17,1.1,2.34,1.1h0A7.12,7.12,0,0,0,114.47,329.45Z"/><path class="cls-4" d="M266.05,186.93H253.67a3.85,3.85,0,0,0-3.84,3.84v29.34a3.86,3.86,0,0,0,3.84,3.85h12.38a3.85,3.85,0,0,0,3.84-3.85V190.77A3.85,3.85,0,0,0,266.05,186.93Zm-6.19,34.76a1.56,1.56,0,1,1,1.56-1.56A1.56,1.56,0,0,1,259.86,221.69Zm7.76-29.89v24.59H252.11V191.8Z"/><path class="cls-41" d="M576.38,94.25a6,6,0,0,0-3-2.19c-.54-.2-1.08-.35-1.55-.48s-.87-.24-1.15-.34a6.43,6.43,0,0,1-1.34-.66,1.74,1.74,0,0,1-.39-.36.4.4,0,0,1-.1-.25V88.55c.74.8,2.28,2.13,4,1.67-1.12-1.08-1-5-1-6.64a9.11,9.11,0,0,0,.58-1.6,3.31,3.31,0,0,0,.16-1,1.8,1.8,0,0,0-.19-.84,1.91,1.91,0,0,0-.15-.21c1.07-1.54.46-10.39-5.63-10.46-6-.78-9.83,1.85-8.8,10.51l0,0-.1.14a1.8,1.8,0,0,0-.19.84,3.64,3.64,0,0,0,.15,1,8.88,8.88,0,0,0,.59,1.59c0,1.67.12,5.57-1,6.65,1.75.46,3.3-.87,4-1.67V90a.51.51,0,0,1-.11.26,2.53,2.53,0,0,1-.72.56,6.82,6.82,0,0,1-1,.45c-.37.13-1,.27-1.65.46a8.34,8.34,0,0,0-3.19,1.55,4.7,4.7,0,0,0-1.22,1.6,5.58,5.58,0,0,0-.47,2.34c0,.21,0,.43,0,.65a.83.83,0,0,0,.14.4,1.84,1.84,0,0,0,.54.49,7.75,7.75,0,0,0,1.62.76,30.52,30.52,0,0,0,9.77,1.42,33.47,33.47,0,0,0,8.47-1A14.7,14.7,0,0,0,576,99a3.69,3.69,0,0,0,.73-.48,1.69,1.69,0,0,0,.26-.28.83.83,0,0,0,.14-.4c0-.22,0-.44,0-.65A5.16,5.16,0,0,0,576.38,94.25ZM556.91,99h0a12.61,12.61,0,0,1-2.29-.83,3.34,3.34,0,0,1-.55-.35l-.08-.09c0-.18,0-.36,0-.53a4.25,4.25,0,0,1,.66-2.43A5,5,0,0,1,557,93c0,.2.08.42.11.66a15.83,15.83,0,0,1,.11,2A18.67,18.67,0,0,1,556.91,99Zm14.53-18.53h0a.34.34,0,0,1,.14.15.78.78,0,0,1,.08.39,2.47,2.47,0,0,1-.12.7,6,6,0,0,1-.7,1.74,1.38,1.38,0,0,1-.32.32,1.42,1.42,0,0,1-.37.18A10.82,10.82,0,0,1,571.44,80.47ZM560.05,84a2.14,2.14,0,0,1-.4-.19,1.6,1.6,0,0,1-.47-.59,7.08,7.08,0,0,1-.54-1.47,2.47,2.47,0,0,1-.12-.7c0-.07,0-.12,0-.17a19.12,19.12,0,0,1,1.6,3.15Zm5,12.74L560.24,92a5.72,5.72,0,0,0,1.12-.59,2.63,2.63,0,0,0,.62-.58,1.29,1.29,0,0,0,.31-.82V87.81l-.12-.13a6.49,6.49,0,0,1-1.76-3.1l.25-5.52,1.14-2s3.84,4,7.69,3.71l.45,3.27-.06,0,0,.27A6.39,6.39,0,0,1,568,87.68l-.12.13V90a1.39,1.39,0,0,0,.28.81,3.08,3.08,0,0,0,1,.8A5.74,5.74,0,0,0,570,92Zm11.15,1,0,0a1.92,1.92,0,0,1-.41.29,11.55,11.55,0,0,1-2.51.94,18.67,18.67,0,0,1-.32-3.41,15.83,15.83,0,0,1,.11-2c0-.24.07-.45.11-.65a6.07,6.07,0,0,1,1.71,1,3.67,3.67,0,0,1,1,1.27,4.55,4.55,0,0,1,.39,1.94C576.26,97.36,576.25,97.54,576.24,97.72Z"/><polygon class="cls-41" points="562.94 91.08 562.94 93.75 565.11 92.78 567.27 93.75 567.27 91.08 565.11 92.04 562.94 91.08"/><path class="cls-41" d="M573.89,323.49c-1-.36-2.06-.92-2.06-1.64V320c.35-1,.88-1.05,1.14-2.55.62-.22,1-.57,1.41-2.11.33-1.16-.15-1.47-.47-1.56,0-.06,0-.12,0-.19.12-1.74,1.13-6.9-2.37-7.52-.92-.71-1.51-1-3.49-.92a11.14,11.14,0,0,1-3.54-.1c-.81.68-1.14,2.06-1.25,3.59a3.46,3.46,0,0,0-.76-.42,4.31,4.31,0,0,0-1.58-.24l-.65,0c-.66,0-1.2.08-1.7.08a3.8,3.8,0,0,1-1.07-.14l-.32-.09L557,308a2.82,2.82,0,0,0-.68.89,5.65,5.65,0,0,0-.5,1.71,13.42,13.42,0,0,0-.12,1.91c0,1.08.09,2.14.17,3l-.13.11a1.34,1.34,0,0,0-.26.43,1.63,1.63,0,0,0-.09.55,2.59,2.59,0,0,0,.12.74,4.65,4.65,0,0,0,.63,1.5,1.67,1.67,0,0,0,.44.44l.17.11a4.9,4.9,0,0,0,.55,1.26l.27.4.05.09h0v1.56a.73.73,0,0,1-.16.17,3.89,3.89,0,0,1-1.15.61,11.06,11.06,0,0,0-3.21,1.68,6.06,6.06,0,0,0-1.56,1.82,5.44,5.44,0,0,0-.67,2.69,5.15,5.15,0,0,0,0,.55l0,.57h29C580.25,325.84,575.56,324.12,573.89,323.49Zm-8.36-1.64c0,.72-1.19,1.33-2.06,1.64-1.53.54-5.56,2.05-6,6h-5.47a4.29,4.29,0,0,1,.51-2,5.58,5.58,0,0,1,2-2,11.83,11.83,0,0,1,2.08-.94A5.48,5.48,0,0,0,558,324a2.75,2.75,0,0,0,.56-.52,1.35,1.35,0,0,0,.29-.81V321a1.56,1.56,0,0,0-.22-.61c-.15-.24-.29-.42-.42-.66a2.73,2.73,0,0,1-.32-.91l-.06-.36-.34-.12a.46.46,0,0,1-.2-.1.73.73,0,0,1-.24-.3,5.07,5.07,0,0,1-.36-1,1.8,1.8,0,0,1-.07-.41.27.27,0,0,1,0-.13h0l.54-.12-.06-.55a30.67,30.67,0,0,1-.21-3.23,10.87,10.87,0,0,1,.2-2.23,3.64,3.64,0,0,1,.29-.83,2.64,2.64,0,0,1,.18-.3,4.87,4.87,0,0,0,1,.1c.63,0,1.16-.08,1.73-.08h0l.58,0a3,3,0,0,1,1.13.16,3.2,3.2,0,0,1,.81.51l.1.08.27.11c0,1.39.15,2.75.25,3.71-.32.07-.85.36-.51,1.56.44,1.54.79,1.89,1.41,2.11.26,1.5,1.07,2,1.13,2.55Z"/><text class="cls-42" transform="translate(123.26 48.2)">車外</text><text class="cls-42" transform="translate(450.85 48.2)">車内</text><path class="cls-4" d="M405.68,225.58V188.79a2.35,2.35,0,0,1,1.88-2.5,2.64,2.64,0,0,1,.63-.06h26.48a2.35,2.35,0,0,1,2.5,2.47v36.43c0,.14,0,.28,0,.45ZM435.61,224V189c0-1-.18-1.2-1.23-1.2H408.49c-1.08,0-1.23.16-1.23,1.23V224Z"/><path class="cls-4" d="M427.71,191v20.44l-.57,0h-17.7c-.49,0-.63-.12-.63-.62q0-9.66,0-19.31c0-.43.1-.59.56-.58h17.81Zm-17.26,1.57v17.29H426.1V192.55Z"/><path class="cls-4" d="M427.72,213v7.81H408.85c0-.15,0-.32,0-.49,0-2.27,0-4.53,0-6.8,0-.39.07-.56.52-.56h17.93Zm-12.31,6.24c-.08-.38-.14-.69-.2-1s-.14-.67-.2-1c-.16-.85,0-1.14.87-1.3l4.15-.81a.82.82,0,0,1,1.1.69c.14.62.26,1.25.39,1.88.19,1,.1,1.17-.8,1.52h5.39v-4.63H410.44v4.65Zm4.51-1.54-.2-.9-3.05.6.2.92Z"/><path class="cls-4" d="M429.4,211.45a2.44,2.44,0,0,1,1.41-3,2.25,2.25,0,0,1,2.86,1,5.79,5.79,0,0,1,.35,1.74c0,.07-.17.25-.26.25Z"/><path class="cls-4" d="M434,197.29v1.53h-4.63v-1.53Z"/><path class="cls-4" d="M429.35,203.56h4.41c.09,0,.25.13.25.2a7.62,7.62,0,0,1,0,1.17c0,.07-.17.19-.26.19h-4.4Z"/><path class="cls-4" d="M429.36,194.11h3.37c1.43,0,1.43,0,1.26,1.51h-4.63Z"/><path class="cls-4" d="M434,200.46c0,.44,0,.85,0,1.25a.44.44,0,0,1-.34.26c-1.42,0-2.84,0-4.3,0v-1.52Z"/><path class="cls-4" d="M425.35,195.67v1.56h-14.1s-.06-.08-.06-.11c-.09-1.41-.09-1.41,1.26-1.45l.3,0v-1.49h1.58v1.49h1.59v-1.49h1.55v1.49h1.58v-1.53c.49,0,.89,0,1.29,0a.45.45,0,0,1,.29.32,11.28,11.28,0,0,1,0,1.17h1.57v-1.48h1.57v1.53Z"/><path class="cls-4" d="M411.21,200.42h1.54v-1.54h1.58v1.54c.48,0,.9,0,1.32,0,.1,0,.26-.22.27-.35,0-.38,0-.77,0-1.18h1.56c0,.4,0,.78,0,1.17s.09.39.37.38.74,0,1.18,0v-1.54h1.61a11.42,11.42,0,0,0,0,1.17.5.5,0,0,0,.31.35,12.25,12.25,0,0,0,1.23,0v-1.55h1.56v1.53h1.59V202H411.21Z"/><path class="cls-4" d="M419.08,205.14v-1.55h1.55v1.51h1.56v-1.5h1.6v1.54h1.56v1.52H411.21v-1.5h1.54V203.6h1.59V205c.09.06.12.1.15.09.47,0,1.09.11,1.36-.14s.09-.87.11-1.37h1.53a9.08,9.08,0,0,0,0,1.17.49.49,0,0,0,.32.35C418.21,205.17,418.6,205.14,419.08,205.14Z"/><g class="cls-43"><path class="cls-44" d="M146.09,147.47a.83.83,0,0,0-.84.84v3.36a.84.84,0,0,0,1.68,0v-3.36a.84.84,0,0,0-.84-.84"/><path class="cls-44" d="M146.09,144.94a.84.84,0,0,1,0,1.68.84.84,0,0,1,0-1.68"/><path class="cls-44" d="M146.09,155a6.73,6.73,0,1,1,6.73-6.72,6.72,6.72,0,0,1-6.73,6.72m0-15.13a8.41,8.41,0,1,0,8.41,8.41,8.4,8.4,0,0,0-8.41-8.41"/></g><g class="cls-45"><path class="cls-44" d="M226.26,341.8a.84.84,0,0,0-.84.84V346a.84.84,0,1,0,1.68,0v-3.36a.84.84,0,0,0-.84-.84"/><path class="cls-44" d="M226.26,339.27a.84.84,0,1,1-.84.84.85.85,0,0,1,.84-.84"/><path class="cls-44" d="M226.26,349.36a6.73,6.73,0,1,1,6.73-6.72,6.72,6.72,0,0,1-6.73,6.72m0-15.13a8.41,8.41,0,1,0,8.41,8.41,8.41,8.41,0,0,0-8.41-8.41"/></g><g class="cls-46"><path class="cls-44" d="M399.43,294.55a.85.85,0,0,0-.84.84v3.37a.84.84,0,0,0,1.68,0v-3.37a.84.84,0,0,0-.84-.84"/><path class="cls-44" d="M399.43,292a.84.84,0,1,1-.84.84.84.84,0,0,1,.84-.84"/><path class="cls-44" d="M399.43,302.12a6.73,6.73,0,1,1,6.73-6.73,6.73,6.73,0,0,1-6.73,6.73m0-15.14a8.41,8.41,0,1,0,8.41,8.41,8.42,8.42,0,0,0-8.41-8.41"/></g><g class="cls-47"><path class="cls-44" d="M399.4,341.8a.84.84,0,0,0-.85.84V346a.85.85,0,0,0,1.69,0v-3.36a.84.84,0,0,0-.84-.84"/><path class="cls-44" d="M399.4,339.27a.84.84,0,1,1-.85.84.85.85,0,0,1,.85-.84"/><path class="cls-44" d="M399.4,349.36a6.73,6.73,0,1,1,6.72-6.72,6.72,6.72,0,0,1-6.72,6.72m0-15.13a8.41,8.41,0,1,0,8.41,8.41,8.4,8.4,0,0,0-8.41-8.41"/></g><g class="cls-48"><path class="cls-44" d="M340.89,168a.85.85,0,0,0-.84.84v3.36a.84.84,0,0,0,1.68,0V168.8a.84.84,0,0,0-.84-.84"/><path class="cls-44" d="M340.89,165.44a.84.84,0,0,1,0,1.68.84.84,0,0,1,0-1.68"/><path class="cls-44" d="M340.89,175.53a6.73,6.73,0,1,1,6.73-6.73,6.72,6.72,0,0,1-6.73,6.73m0-15.14a8.41,8.41,0,1,0,8.41,8.41,8.41,8.41,0,0,0-8.41-8.41"/></g><g class="cls-49"><path class="cls-44" d="M245,92.91a.84.84,0,0,0-.84.84v3.36a.84.84,0,1,0,1.68,0V93.75a.83.83,0,0,0-.84-.84"/><path class="cls-44" d="M245,90.38a.84.84,0,1,1-.84.84.84.84,0,0,1,.84-.84"/><path class="cls-44" d="M245,100.47a6.73,6.73,0,1,1,6.73-6.72,6.73,6.73,0,0,1-6.73,6.72m0-15.13a8.41,8.41,0,1,0,8.41,8.41A8.41,8.41,0,0,0,245,85.34"/></g><g class="cls-50"><path class="cls-44" d="M507.32,98.16a.83.83,0,0,0-.84.84v3.36a.84.84,0,0,0,1.68,0V99a.84.84,0,0,0-.84-.84"/><path class="cls-44" d="M507.32,95.63a.85.85,0,1,1-.84.84.85.85,0,0,1,.84-.84"/><path class="cls-44" d="M507.32,105.73A6.73,6.73,0,1,1,514.05,99a6.73,6.73,0,0,1-6.73,6.73m0-15.14A8.41,8.41,0,1,0,515.73,99a8.4,8.4,0,0,0-8.41-8.41"/></g><g class="cls-51"><path class="cls-44" d="M544.3,214.82a.84.84,0,0,0-.84.85V219a.84.84,0,1,0,1.68,0v-3.36a.85.85,0,0,0-.84-.85"/><path class="cls-44" d="M544.3,212.3a.84.84,0,0,1,0,1.68.84.84,0,0,1,0-1.68"/><path class="cls-44" d="M544.3,222.39a6.73,6.73,0,1,1,6.73-6.73,6.73,6.73,0,0,1-6.73,6.73m0-15.14a8.41,8.41,0,1,0,8.41,8.41,8.41,8.41,0,0,0-8.41-8.41"/></g><path class="cls-52" d="M345.66,66.55h8.94l0-6.64-2-2.19h-4.95l-2,2.19Zm9.32.38H345.3l0-7.17,2.21-2.41h5.29L355,59.78Z"/><rect class="cls-52" x="345.31" y="59.76" width="9.69" height="0.39"/><rect class="cls-52" x="349.94" y="57.57" width="0.39" height="2.32"/><g class="cls-53"><path class="cls-52" d="M348.5,61.76a.4.4,0,1,0,0,.8h3.28a.4.4,0,0,0,0-.8ZM351.78,63H348.5a.85.85,0,0,1,0-1.7h3.28a.85.85,0,1,1,0,1.7"/><ellipse class="cls-54" cx="350.14" cy="62.16" rx="7.93" ry="7.91"/></g><path class="cls-52" d="M75.91,153.29h8.93l0-6.63-2-2.19h-5l-2,2.19Zm9.31.38H75.55l0-7.17,2.21-2.41H83l2.21,2.43Z"/><rect class="cls-52" x="75.55" y="146.5" width="9.69" height="0.39"/><rect class="cls-52" x="80.19" y="144.31" width="0.39" height="2.32"/><g class="cls-55"><path class="cls-52" d="M78.75,148.5a.41.41,0,1,0,0,.81H82a.41.41,0,1,0,0-.81ZM82,149.75H78.75a.85.85,0,1,1,0-1.7H82a.85.85,0,1,1,0,1.7"/><ellipse class="cls-54" cx="80.38" cy="148.9" rx="7.93" ry="7.91"/></g><path class="cls-52" d="M497,291.38h8.94l0-6.64-2-2.19H499l-2,2.19Zm9.32.37h-9.67l0-7.16,2.21-2.42h5.29l2.21,2.44Z"/><rect class="cls-52" x="496.63" y="284.58" width="9.69" height="0.39"/><rect class="cls-52" x="501.27" y="282.39" width="0.39" height="2.32"/><g class="cls-56"><path class="cls-52" d="M499.82,286.58a.41.41,0,0,0,0,.81h3.28a.41.41,0,1,0,0-.81Zm3.28,1.26h-3.28a.86.86,0,0,1,0-1.71h3.28a.86.86,0,0,1,0,1.71"/><ellipse class="cls-54" cx="501.46" cy="286.98" rx="7.93" ry="7.91"/></g><path class="cls-52" d="M592.26,221.23h8.94l0-6.64-2-2.18h-5l-2,2.18Zm9.32.38H591.9l0-7.17,2.21-2.41h5.29l2.22,2.43Z"/><rect class="cls-52" x="591.91" y="214.44" width="9.69" height="0.39"/><rect class="cls-52" x="596.55" y="212.25" width="0.39" height="2.32"/><g class="cls-57"><path class="cls-52" d="M595.1,216.44a.41.41,0,0,0,0,.81h3.28a.41.41,0,0,0,0-.81Zm3.28,1.25H595.1a.85.85,0,0,1,0-1.7h3.28a.85.85,0,1,1,0,1.7"/><ellipse class="cls-54" cx="596.74" cy="216.84" rx="7.93" ry="7.91"/></g><path class="cls-52" d="M502.84,135.1h8.94l0-6.64-2-2.19h-5l-2,2.19Zm9.32.37h-9.68l0-7.16,2.21-2.42H510l2.22,2.44Z"/><rect class="cls-52" x="502.49" y="128.3" width="9.69" height="0.39"/><rect class="cls-52" x="507.13" y="126.11" width="0.39" height="2.32"/><g class="cls-58"><path class="cls-52" d="M505.68,130.3a.41.41,0,0,0,0,.81H509a.41.41,0,0,0,0-.81Zm3.28,1.26h-3.28a.86.86,0,0,1,0-1.71H509a.86.86,0,0,1,0,1.71"/><ellipse class="cls-54" cx="507.32" cy="130.71" rx="7.93" ry="7.91"/></g><g class="cls-59"><path class="cls-60" d="M220.9,316.4a7.24,7.24,0,1,1,7.23-7.24,7.24,7.24,0,0,1-7.23,7.24m0-15.65a8.41,8.41,0,1,0,8.41,8.41,8.41,8.41,0,0,0-8.41-8.41"/><path class="cls-60" d="M221.64,312.09v-2.31c1.07.33,1.16.71,1.16,1.14,0,.61-.43,1-1.16,1.13m-1.22-4c-1-.33-1.13-.71-1.13-1.14s.44-1,1.13-1.08Zm1.2.27v-2.46a3.52,3.52,0,0,1,1.18.62.64.64,0,0,0,.42.13.69.69,0,0,0,.71-.67h0a.78.78,0,0,0-.35-.62,4.47,4.47,0,0,0-1.92-.8v-.17a.64.64,0,1,0-1.28,0v.13a2.57,2.57,0,0,0-2.53,2.46c0,1.3.74,2.09,2.58,2.55V312a3.62,3.62,0,0,1-1.71-.89.7.7,0,0,0-1,.12.69.69,0,0,0-.15.42.71.71,0,0,0,.3.61,5.08,5.08,0,0,0,2.52,1.1V314a.64.64,0,0,0,1.28,0v-.61a2.61,2.61,0,0,0,2.56-2.51c0-1.33-.8-2.09-2.6-2.53"/></g><g class="cls-61"><path class="cls-60" d="M234.67,134.83a7.24,7.24,0,1,1,7.24-7.24,7.24,7.24,0,0,1-7.24,7.24m0-15.65a8.41,8.41,0,1,0,8.41,8.41,8.41,8.41,0,0,0-8.41-8.41"/><path class="cls-60" d="M235.42,130.52V128.2c1.07.33,1.16.72,1.16,1.15,0,.61-.44,1-1.16,1.13m-1.23-4c-1-.33-1.12-.71-1.12-1.14s.43-1,1.12-1.08Zm1.2.27v-2.46a3.52,3.52,0,0,1,1.18.62.64.64,0,0,0,.42.13.69.69,0,0,0,.71-.67v0a.71.71,0,0,0-.35-.61,4.43,4.43,0,0,0-1.91-.8v-.18a.65.65,0,0,0-1.29,0v.14a2.57,2.57,0,0,0-2.52,2.45c0,1.31.74,2.1,2.58,2.56v2.52a3.79,3.79,0,0,1-1.72-.89.7.7,0,0,0-1,.11.74.74,0,0,0,.15,1,5.08,5.08,0,0,0,2.51,1.1v.65a.65.65,0,0,0,1.29,0v-.61a2.61,2.61,0,0,0,2.56-2.51c0-1.33-.81-2.09-2.6-2.53"/></g><g class="cls-62"><path class="cls-60" d="M294.75,285.81a7.24,7.24,0,1,1,7.24-7.24,7.24,7.24,0,0,1-7.24,7.24m0-15.65a8.41,8.41,0,1,0,8.41,8.41,8.42,8.42,0,0,0-8.41-8.41"/><path class="cls-60" d="M295.5,281.5v-2.31c1.07.33,1.16.72,1.16,1.14,0,.61-.43,1-1.16,1.14m-1.23-4c-1-.33-1.12-.71-1.12-1.14s.44-1,1.12-1.08Zm1.21.27v-2.45a3.9,3.9,0,0,1,1.18.61.68.68,0,0,0,.41.14.69.69,0,0,0,.71-.68h0a.71.71,0,0,0-.35-.61,4.33,4.33,0,0,0-1.91-.81v-.17a.64.64,0,0,0-1.28,0v.13a2.57,2.57,0,0,0-2.53,2.46c0,1.31.74,2.09,2.58,2.55v2.53a3.79,3.79,0,0,1-1.72-.89.7.7,0,0,0-1,.11.66.66,0,0,0-.15.42.67.67,0,0,0,.3.61,4.91,4.91,0,0,0,2.51,1.1v.65a.65.65,0,1,0,1.29,0v-.61a2.6,2.6,0,0,0,2.56-2.5c0-1.34-.81-2.1-2.6-2.54"/></g></svg>